<svg xmlns="http://www.w3.org/2000/svg" width="760" height="438" viewBox="0 0 760 438" role="img" aria-labelledby="title desc">
  <title id="title">Organism Trends</title>
  <desc id="desc">Seven-day trends for total organisms and organism types.</desc>
  <rect width="760" height="438" rx="8" fill="#ffffff"/>
  <style>
    text { font-family: -apple-system, BlinkMacSystemFont, "Segoe UI", sans-serif; }
    .title { font-size: 18px; font-weight: 700; fill: #1f2933; }
    .subtitle { font-size: 12px; fill: #52606d; }
    .label { font-size: 13px; font-weight: 650; fill: #1f2933; }
    .axis-value { font-size: 11px; fill: #52606d; }
    .separator { stroke: #eef2f7; stroke-width: 1; }
  </style>
  <text x="24" y="32" class="title">Organism Trends</text>
  <text x="24" y="52" class="subtitle">Last 7 days range</text>
  <text x="24" y="98" class="label">Total organisms</text>
  <polyline points="180.0,107.3 190.5,104.3 201.0,101.9 211.5,100.2 222.1,99.3 232.6,99.5 243.1,98.6 253.6,96.8 264.1,98.7 274.6,96.0 285.1,93.4 295.6,91.2 306.2,88.4 316.7,85.8 327.2,83.6 337.7,81.5 348.2,79.7 358.7,79.4 369.2,80.6 379.7,82.2 390.3,83.3 400.8,83.7 411.3,83.0 421.8,81.9 432.3,81.3 442.8,79.2 453.3,78.7 463.8,76.6 474.4,75.8 484.9,109.0 495.4,105.7 505.9,102.3 516.4,98.6 526.9,94.6 537.4,91.3 547.9,88.5 558.5,84.0 569.0,81.2 579.5,78.4 590.0,75.0 " fill="none" stroke="#2f855a" stroke-width="3" stroke-linecap="round" stroke-linejoin="round" />
  <text x="618" y="83" class="axis-value">17371</text>
  <text x="618" y="109" class="axis-value">12233</text>
  <line x1="24" y1="115.0" x2="714" y2="115.0" class="separator" />
  <text x="24" y="144" class="label">Beetle</text>
  <polyline points="180.0,121.0 190.5,122.4 201.0,125.2 211.5,129.0 222.1,134.0 232.6,139.2 243.1,143.3 253.6,147.0 264.1,155.0 274.6,155.0 285.1,155.0 295.6,155.0 306.2,155.0 316.7,155.0 327.2,155.0 337.7,155.0 348.2,155.0 358.7,155.0 369.2,155.0 379.7,155.0 390.3,155.0 400.8,155.0 411.3,155.0 421.8,155.0 432.3,154.9 442.8,154.5 453.3,154.8 463.8,153.9 474.4,154.9 484.9,153.6 495.4,153.5 505.9,153.6 516.4,153.8 526.9,153.8 537.4,153.9 547.9,154.9 558.5,153.6 569.0,153.9 579.5,154.1 590.0,153.6 " fill="none" stroke="#805ad5" stroke-width="3" stroke-linecap="round" stroke-linejoin="round" />
  <text x="618" y="129" class="axis-value">4698</text>
  <text x="618" y="155" class="axis-value">0</text>
  <line x1="24" y1="161.0" x2="714" y2="161.0" class="separator" />
  <text x="24" y="190" class="label">Fern</text>
  <polyline points="180.0,173.6 190.5,179.7 201.0,185.8 211.5,190.8 222.1,195.1 232.6,196.6 243.1,196.9 253.6,196.5 264.1,194.9 274.6,193.0 285.1,190.9 295.6,189.2 306.2,187.0 316.7,184.9 327.2,183.2 337.7,181.5 348.2,180.1 358.7,178.9 369.2,177.8 379.7,176.6 390.3,175.4 400.8,174.2 411.3,173.1 421.8,171.8 432.3,170.7 442.8,169.9 453.3,168.7 463.8,167.8 474.4,167.0 484.9,201.0 495.4,200.1 505.9,198.3 516.4,196.0 526.9,193.3 537.4,191.1 547.9,188.9 558.5,187.0 569.0,185.5 579.5,185.0 590.0,184.7 " fill="none" stroke="#d53f8c" stroke-width="3" stroke-linecap="round" stroke-linejoin="round" />
  <text x="618" y="175" class="axis-value">4795</text>
  <text x="618" y="201" class="axis-value">3162</text>
  <line x1="24" y1="207.0" x2="714" y2="207.0" class="separator" />
  <text x="24" y="236" class="label">Fox</text>
  <polyline points="180.0,244.6 190.5,241.6 201.0,238.3 211.5,235.0 222.1,231.4 232.6,228.2 243.1,225.2 253.6,221.9 264.1,219.1 274.6,220.4 285.1,221.9 295.6,223.2 306.2,224.1 316.7,225.3 327.2,226.9 337.7,229.1 348.2,231.1 358.7,233.4 369.2,236.4 379.7,240.1 390.3,243.1 400.8,245.3 411.3,245.9 421.8,246.1 432.3,247.0 442.8,246.0 453.3,246.4 463.8,246.0 474.4,244.8 484.9,246.0 495.4,242.7 505.9,239.5 516.4,235.9 526.9,232.3 537.4,229.1 547.9,225.7 558.5,222.5 569.0,219.6 579.5,216.4 590.0,213.0 " fill="none" stroke="#dd6b20" stroke-width="3" stroke-linecap="round" stroke-linejoin="round" />
  <text x="618" y="221" class="axis-value">4020</text>
  <text x="618" y="247" class="axis-value">29</text>
  <line x1="24" y1="253.0" x2="714" y2="253.0" class="separator" />
  <text x="24" y="282" class="label">Fungus</text>
  <polyline points="180.0,293.0 190.5,290.4 201.0,287.4 211.5,284.5 222.1,281.4 232.6,278.6 243.1,276.0 253.6,273.1 264.1,270.2 274.6,269.1 285.1,268.4 295.6,267.8 306.2,267.0 316.7,266.2 327.2,265.6 337.7,265.0 348.2,264.5 358.7,264.1 369.2,263.6 379.7,263.1 390.3,262.6 400.8,262.1 411.3,261.6 421.8,261.1 432.3,260.6 442.8,260.2 453.3,259.7 463.8,259.3 474.4,259.0 484.9,272.0 495.4,271.6 505.9,271.3 516.4,270.9 526.9,270.5 537.4,270.3 547.9,269.8 558.5,269.6 569.0,269.3 579.5,269.0 590.0,268.8 " fill="none" stroke="#3182ce" stroke-width="3" stroke-linecap="round" stroke-linejoin="round" />
  <text x="618" y="267" class="axis-value">4904</text>
  <text x="618" y="293" class="axis-value">349</text>
  <line x1="24" y1="299.0" x2="714" y2="299.0" class="separator" />
  <text x="24" y="328" class="label">Moss</text>
  <polyline points="180.0,322.0 190.5,322.0 201.0,322.0 211.5,322.0 222.1,322.0 232.6,322.0 243.1,322.0 253.6,322.0 264.1,322.0 274.6,322.0 285.1,322.0 295.6,322.0 306.2,322.0 316.7,322.0 327.2,322.0 337.7,322.0 348.2,322.0 358.7,322.0 369.2,322.0 379.7,322.0 390.3,322.0 400.8,322.0 411.3,322.0 421.8,322.0 432.3,322.0 442.8,322.0 453.3,322.0 463.8,322.0 474.4,322.0 484.9,322.0 495.4,322.0 505.9,322.0 516.4,322.0 526.9,322.0 537.4,322.0 547.9,322.0 558.5,322.0 569.0,322.0 579.5,322.0 590.0,322.0 " fill="none" stroke="#b7791f" stroke-width="3" stroke-linecap="round" stroke-linejoin="round" />
  <text x="618" y="313" class="axis-value">2407</text>
  <text x="618" y="339" class="axis-value">2407</text>
  <line x1="24" y1="345.0" x2="714" y2="345.0" class="separator" />
  <text x="24" y="374" class="label">Root Network</text>
  <polyline points="180.0,385.0 190.5,383.3 201.0,381.3 211.5,379.4 222.1,378.1 232.6,378.0 243.1,378.0 253.6,378.0 264.1,377.8 274.6,375.4 285.1,372.7 295.6,370.3 306.2,368.0 316.7,365.5 327.2,362.9 337.7,359.9 348.2,357.1 358.7,355.6 369.2,355.2 379.7,354.7 390.3,354.2 400.8,353.8 411.3,353.3 421.8,352.8 432.3,352.4 442.8,352.0 453.3,351.6 463.8,351.3 474.4,351.0 484.9,363.6 495.4,363.4 505.9,363.3 516.4,363.3 526.9,363.3 537.4,363.3 547.9,363.2 558.5,363.2 569.0,363.2 579.5,363.2 590.0,363.2 " fill="none" stroke="#319795" stroke-width="3" stroke-linecap="round" stroke-linejoin="round" />
  <text x="618" y="359" class="axis-value">4848</text>
  <text x="618" y="385" class="axis-value">244</text>
  <line x1="24" y1="391.0" x2="714" y2="391.0" class="separator" />
  <text x="24" y="420" class="label">Spore</text>
  <polyline points="180.0,414.0 190.5,414.0 201.0,414.0 211.5,414.0 222.1,414.0 232.6,414.0 243.1,414.0 253.6,414.0 264.1,414.0 274.6,414.0 285.1,414.0 295.6,414.0 306.2,414.0 316.7,414.0 327.2,414.0 337.7,414.0 348.2,414.0 358.7,414.0 369.2,414.0 379.7,414.0 390.3,414.0 400.8,414.0 411.3,414.0 421.8,414.0 432.3,414.0 442.8,414.0 453.3,414.0 463.8,414.0 474.4,414.0 484.9,414.0 495.4,414.0 505.9,414.0 516.4,414.0 526.9,414.0 537.4,414.0 547.9,414.0 558.5,414.0 569.0,414.0 579.5,414.0 590.0,414.0 " fill="none" stroke="#e53e3e" stroke-width="3" stroke-linecap="round" stroke-linejoin="round" />
  <text x="618" y="405" class="axis-value">1</text>
  <text x="618" y="431" class="axis-value">1</text>
</svg>
