<svg xmlns="http://www.w3.org/2000/svg" width="760" height="438" viewBox="0 0 760 438" role="img" aria-labelledby="title desc">
  <title id="title">Organism Trends</title>
  <desc id="desc">Seven-day trends for total organisms and organism types.</desc>
  <rect width="760" height="438" rx="8" fill="#ffffff"/>
  <style>
    text { font-family: -apple-system, BlinkMacSystemFont, "Segoe UI", sans-serif; }
    .title { font-size: 18px; font-weight: 700; fill: #1f2933; }
    .subtitle { font-size: 12px; fill: #52606d; }
    .label { font-size: 13px; font-weight: 650; fill: #1f2933; }
    .axis-value { font-size: 11px; fill: #52606d; }
    .separator { stroke: #eef2f7; stroke-width: 1; }
  </style>
  <text x="24" y="32" class="title">Organism Trends</text>
  <text x="24" y="52" class="subtitle">Last 7 days range</text>
  <text x="24" y="98" class="label">Total organisms</text>
  <polyline points="180.0,107.0 190.5,104.2 201.0,101.9 211.5,100.3 222.1,99.8 232.6,100.3 243.1,98.6 253.6,97.2 264.1,98.5 274.6,95.8 285.1,93.3 295.6,91.0 306.2,88.0 316.7,85.4 327.2,83.3 337.7,81.1 348.2,79.4 358.7,80.0 369.2,81.2 379.7,82.8 390.3,84.1 400.8,84.3 411.3,83.3 421.8,81.7 432.3,81.3 442.8,79.1 453.3,78.5 463.8,76.3 474.4,76.2 484.9,109.0 495.4,105.7 505.9,101.8 516.4,98.3 526.9,94.2 537.4,90.7 547.9,87.4 558.5,84.0 569.0,80.6 579.5,77.8 590.0,75.0 " fill="none" stroke="#2f855a" stroke-width="3" stroke-linecap="round" stroke-linejoin="round" />
  <text x="618" y="83" class="axis-value">17396</text>
  <text x="618" y="109" class="axis-value">12335</text>
  <line x1="24" y1="115.0" x2="714" y2="115.0" class="separator" />
  <text x="24" y="144" class="label">Beetle</text>
  <polyline points="180.0,121.0 190.5,122.8 201.0,126.0 211.5,130.2 222.1,135.2 232.6,140.8 243.1,144.2 253.6,148.4 264.1,155.0 274.6,155.0 285.1,155.0 295.6,155.0 306.2,155.0 316.7,155.0 327.2,155.0 337.7,155.0 348.2,155.0 358.7,155.0 369.2,155.0 379.7,155.0 390.3,155.0 400.8,155.0 411.3,155.0 421.8,155.0 432.3,154.9 442.8,155.0 453.3,154.1 463.8,154.1 474.4,154.9 484.9,153.6 495.4,153.6 505.9,153.7 516.4,153.9 526.9,153.6 537.4,153.7 547.9,153.9 558.5,154.0 569.0,153.6 579.5,153.8 590.0,154.0 " fill="none" stroke="#805ad5" stroke-width="3" stroke-linecap="round" stroke-linejoin="round" />
  <text x="618" y="129" class="axis-value">4655</text>
  <text x="618" y="155" class="axis-value">0</text>
  <line x1="24" y1="161.0" x2="714" y2="161.0" class="separator" />
  <text x="24" y="190" class="label">Fern</text>
  <polyline points="180.0,175.7 190.5,181.7 201.0,187.6 211.5,192.3 222.1,195.9 232.6,197.0 243.1,197.0 253.6,196.4 264.1,194.7 274.6,192.6 285.1,190.7 295.6,188.9 306.2,186.6 316.7,184.5 327.2,182.9 337.7,181.3 348.2,179.9 358.7,178.9 369.2,177.7 379.7,176.5 390.3,175.3 400.8,174.2 411.3,173.0 421.8,171.7 432.3,170.7 442.8,169.8 453.3,168.7 463.8,167.9 474.4,167.0 484.9,201.0 495.4,200.1 505.9,197.9 516.4,195.7 526.9,193.2 537.4,190.8 547.9,188.7 558.5,186.8 569.0,185.6 579.5,185.1 590.0,184.7 " fill="none" stroke="#d53f8c" stroke-width="3" stroke-linecap="round" stroke-linejoin="round" />
  <text x="618" y="175" class="axis-value">4806</text>
  <text x="618" y="201" class="axis-value">3170</text>
  <line x1="24" y1="207.0" x2="714" y2="207.0" class="separator" />
  <text x="24" y="236" class="label">Fox</text>
  <polyline points="180.0,243.6 190.5,240.7 201.0,237.3 211.5,234.1 222.1,230.7 232.6,227.6 243.1,224.6 253.6,221.4 264.1,219.8 274.6,221.3 285.1,222.8 295.6,223.8 306.2,224.6 316.7,226.0 327.2,227.8 337.7,229.8 348.2,231.7 358.7,234.3 369.2,237.4 379.7,240.9 390.3,244.1 400.8,245.8 411.3,246.0 421.8,245.8 432.3,246.8 442.8,245.3 453.3,247.0 463.8,245.2 474.4,245.2 484.9,245.1 495.4,241.9 505.9,238.4 516.4,235.2 526.9,231.8 537.4,228.5 547.9,225.5 558.5,222.3 569.0,219.3 579.5,216.1 590.0,213.0 " fill="none" stroke="#dd6b20" stroke-width="3" stroke-linecap="round" stroke-linejoin="round" />
  <text x="618" y="221" class="axis-value">4088</text>
  <text x="618" y="247" class="axis-value">7</text>
  <line x1="24" y1="253.0" x2="714" y2="253.0" class="separator" />
  <text x="24" y="282" class="label">Fungus</text>
  <polyline points="180.0,293.0 190.5,290.3 201.0,287.2 211.5,284.3 222.1,281.2 232.6,278.3 243.1,275.6 253.6,272.7 264.1,270.0 274.6,269.2 285.1,268.5 295.6,267.9 306.2,267.0 316.7,266.3 327.2,265.6 337.7,265.1 348.2,264.6 358.7,264.1 369.2,263.6 379.7,263.2 390.3,262.6 400.8,262.1 411.3,261.6 421.8,261.1 432.3,260.6 442.8,260.2 453.3,259.7 463.8,259.3 474.4,259.0 484.9,272.3 495.4,271.9 505.9,271.5 516.4,271.1 526.9,270.8 537.4,270.5 547.9,270.1 558.5,269.8 569.0,269.6 579.5,269.3 590.0,269.0 " fill="none" stroke="#3182ce" stroke-width="3" stroke-linecap="round" stroke-linejoin="round" />
  <text x="618" y="267" class="axis-value">4916</text>
  <text x="618" y="293" class="axis-value">457</text>
  <line x1="24" y1="299.0" x2="714" y2="299.0" class="separator" />
  <text x="24" y="328" class="label">Moss</text>
  <polyline points="180.0,322.0 190.5,322.0 201.0,322.0 211.5,322.0 222.1,322.0 232.6,322.0 243.1,322.0 253.6,322.0 264.1,322.0 274.6,322.0 285.1,322.0 295.6,322.0 306.2,322.0 316.7,322.0 327.2,322.0 337.7,322.0 348.2,322.0 358.7,322.0 369.2,322.0 379.7,322.0 390.3,322.0 400.8,322.0 411.3,322.0 421.8,322.0 432.3,322.0 442.8,322.0 453.3,322.0 463.8,322.0 474.4,322.0 484.9,322.0 495.4,322.0 505.9,322.0 516.4,322.0 526.9,322.0 537.4,322.0 547.9,322.0 558.5,322.0 569.0,322.0 579.5,322.0 590.0,322.0 " fill="none" stroke="#b7791f" stroke-width="3" stroke-linecap="round" stroke-linejoin="round" />
  <text x="618" y="313" class="axis-value">2407</text>
  <text x="618" y="339" class="axis-value">2407</text>
  <line x1="24" y1="345.0" x2="714" y2="345.0" class="separator" />
  <text x="24" y="374" class="label">Root Network</text>
  <polyline points="180.0,385.0 190.5,383.2 201.0,381.2 211.5,379.3 222.1,378.4 232.6,378.4 243.1,378.4 253.6,378.4 264.1,377.9 274.6,375.0 285.1,372.3 295.6,370.0 306.2,367.6 316.7,365.0 327.2,362.2 337.7,359.1 348.2,356.5 358.7,355.6 369.2,355.2 379.7,354.7 390.3,354.2 400.8,353.8 411.3,353.3 421.8,352.8 432.3,352.4 442.8,352.0 453.3,351.6 463.8,351.3 474.4,351.0 484.9,363.8 495.4,363.6 505.9,363.5 516.4,363.5 526.9,363.5 537.4,363.5 547.9,363.5 558.5,363.4 569.0,363.4 579.5,363.4 590.0,363.4 " fill="none" stroke="#319795" stroke-width="3" stroke-linecap="round" stroke-linejoin="round" />
  <text x="618" y="359" class="axis-value">4856</text>
  <text x="618" y="385" class="axis-value">316</text>
  <line x1="24" y1="391.0" x2="714" y2="391.0" class="separator" />
  <text x="24" y="420" class="label">Spore</text>
  <polyline points="180.0,414.0 190.5,414.0 201.0,414.0 211.5,414.0 222.1,414.0 232.6,414.0 243.1,414.0 253.6,414.0 264.1,414.0 274.6,414.0 285.1,414.0 295.6,414.0 306.2,414.0 316.7,414.0 327.2,414.0 337.7,414.0 348.2,414.0 358.7,414.0 369.2,414.0 379.7,414.0 390.3,414.0 400.8,414.0 411.3,414.0 421.8,414.0 432.3,414.0 442.8,414.0 453.3,414.0 463.8,414.0 474.4,414.0 484.9,414.0 495.4,414.0 505.9,414.0 516.4,414.0 526.9,414.0 537.4,414.0 547.9,414.0 558.5,414.0 569.0,414.0 579.5,414.0 590.0,414.0 " fill="none" stroke="#e53e3e" stroke-width="3" stroke-linecap="round" stroke-linejoin="round" />
  <text x="618" y="405" class="axis-value">1</text>
  <text x="618" y="431" class="axis-value">1</text>
</svg>
