<svg xmlns="http://www.w3.org/2000/svg" width="760" height="438" viewBox="0 0 760 438" role="img" aria-labelledby="title desc">
  <title id="title">Organism Trends</title>
  <desc id="desc">Seven-day trends for total organisms and organism types.</desc>
  <rect width="760" height="438" rx="8" fill="#ffffff"/>
  <style>
    text { font-family: -apple-system, BlinkMacSystemFont, "Segoe UI", sans-serif; }
    .title { font-size: 18px; font-weight: 700; fill: #1f2933; }
    .subtitle { font-size: 12px; fill: #52606d; }
    .label { font-size: 13px; font-weight: 650; fill: #1f2933; }
    .axis-value { font-size: 11px; fill: #52606d; }
    .separator { stroke: #eef2f7; stroke-width: 1; }
  </style>
  <text x="24" y="32" class="title">Organism Trends</text>
  <text x="24" y="52" class="subtitle">Last 7 days range</text>
  <text x="24" y="98" class="label">Total organisms</text>
  <polyline points="180.0,109.0 190.5,108.5 201.0,107.6 211.5,107.2 222.1,106.8 232.6,105.9 243.1,104.8 253.6,104.4 264.1,103.9 274.6,102.8 285.1,99.8 295.6,98.1 306.2,96.9 316.7,96.7 327.2,96.9 337.7,96.0 348.2,94.9 358.7,93.9 369.2,92.8 379.7,91.6 390.3,90.7 400.8,89.7 411.3,88.9 421.8,87.9 432.3,86.9 442.8,85.9 453.3,85.1 463.8,84.2 474.4,83.3 484.9,82.4 495.4,81.5 505.9,80.8 516.4,80.1 526.9,79.3 537.4,78.6 547.9,77.8 558.5,77.0 569.0,76.4 579.5,75.7 590.0,75.0 " fill="none" stroke="#2f855a" stroke-width="3" stroke-linecap="round" stroke-linejoin="round" />
  <text x="618" y="83" class="axis-value">8596</text>
  <text x="618" y="109" class="axis-value">5869</text>
  <line x1="24" y1="115.0" x2="714" y2="115.0" class="separator" />
  <text x="24" y="144" class="label">Beetle</text>
  <polyline points="180.0,155.0 190.5,155.0 201.0,155.0 211.5,155.0 222.1,155.0 232.6,155.0 243.1,155.0 253.6,155.0 264.1,155.0 274.6,155.0 285.1,155.0 295.6,155.0 306.2,155.0 316.7,154.5 327.2,153.3 337.7,152.1 348.2,150.9 358.7,149.7 369.2,148.4 379.7,147.1 390.3,146.0 400.8,144.7 411.3,143.6 421.8,142.2 432.3,140.8 442.8,139.5 453.3,138.3 463.8,137.1 474.4,135.8 484.9,134.4 495.4,133.0 505.9,131.7 516.4,130.4 526.9,129.2 537.4,127.8 547.9,126.4 558.5,125.0 569.0,123.7 579.5,122.4 590.0,121.0 " fill="none" stroke="#805ad5" stroke-width="3" stroke-linecap="round" stroke-linejoin="round" />
  <text x="618" y="129" class="axis-value">2824</text>
  <text x="618" y="155" class="axis-value">0</text>
  <line x1="24" y1="161.0" x2="714" y2="161.0" class="separator" />
  <text x="24" y="190" class="label">Fern</text>
  <polyline points="180.0,186.8 190.5,192.3 201.0,168.6 211.5,192.3 222.1,191.5 232.6,196.3 243.1,167.0 253.6,189.1 264.1,193.9 274.6,183.6 285.1,197.8 295.6,201.0 306.2,201.0 316.7,201.0 327.2,201.0 337.7,201.0 348.2,201.0 358.7,201.0 369.2,201.0 379.7,201.0 390.3,201.0 400.8,201.0 411.3,201.0 421.8,201.0 432.3,201.0 442.8,201.0 453.3,201.0 463.8,201.0 474.4,201.0 484.9,201.0 495.4,201.0 505.9,201.0 516.4,201.0 526.9,201.0 537.4,201.0 547.9,201.0 558.5,201.0 569.0,201.0 579.5,201.0 590.0,201.0 " fill="none" stroke="#d53f8c" stroke-width="3" stroke-linecap="round" stroke-linejoin="round" />
  <text x="618" y="175" class="axis-value">43</text>
  <text x="618" y="201" class="axis-value">0</text>
  <line x1="24" y1="207.0" x2="714" y2="207.0" class="separator" />
  <text x="24" y="236" class="label">Fox</text>
  <polyline points="180.0,247.0 190.5,247.0 201.0,247.0 211.5,247.0 222.1,247.0 232.6,247.0 243.1,247.0 253.6,247.0 264.1,247.0 274.6,247.0 285.1,247.0 295.6,235.7 306.2,247.0 316.7,235.7 327.2,213.0 337.7,213.0 348.2,213.0 358.7,213.0 369.2,213.0 379.7,213.0 390.3,213.0 400.8,213.0 411.3,213.0 421.8,213.0 432.3,213.0 442.8,213.0 453.3,213.0 463.8,213.0 474.4,213.0 484.9,213.0 495.4,213.0 505.9,213.0 516.4,213.0 526.9,213.0 537.4,213.0 547.9,213.0 558.5,213.0 569.0,213.0 579.5,213.0 590.0,213.0 " fill="none" stroke="#dd6b20" stroke-width="3" stroke-linecap="round" stroke-linejoin="round" />
  <text x="618" y="221" class="axis-value">3</text>
  <text x="618" y="247" class="axis-value">0</text>
  <line x1="24" y1="253.0" x2="714" y2="253.0" class="separator" />
  <text x="24" y="282" class="label">Fungus</text>
  <polyline points="180.0,293.0 190.5,293.0 201.0,293.0 211.5,293.0 222.1,293.0 232.6,293.0 243.1,293.0 253.6,293.0 264.1,293.0 274.6,293.0 285.1,293.0 295.6,281.1 306.2,259.0 316.7,264.7 327.2,292.8 337.7,290.4 348.2,292.8 358.7,292.3 369.2,293.0 379.7,292.8 390.3,292.3 400.8,292.3 411.3,293.0 421.8,293.0 432.3,293.0 442.8,293.0 453.3,293.0 463.8,290.1 474.4,290.1 484.9,290.1 495.4,290.1 505.9,290.1 516.4,290.1 526.9,290.1 537.4,290.1 547.9,290.1 558.5,290.1 569.0,290.1 579.5,290.1 590.0,290.1 " fill="none" stroke="#3182ce" stroke-width="3" stroke-linecap="round" stroke-linejoin="round" />
  <text x="618" y="267" class="axis-value">143</text>
  <text x="618" y="293" class="axis-value">0</text>
  <line x1="24" y1="299.0" x2="714" y2="299.0" class="separator" />
  <text x="24" y="328" class="label">Moss</text>
  <polyline points="180.0,335.8 190.5,334.1 201.0,332.7 211.5,330.4 222.1,329.0 232.6,326.3 243.1,324.6 253.6,322.4 264.1,320.7 274.6,317.8 285.1,308.3 295.6,305.0 306.2,305.0 316.7,305.0 327.2,305.1 337.7,306.5 348.2,306.6 358.7,307.0 369.2,307.6 379.7,308.4 390.3,309.2 400.8,310.0 411.3,311.0 421.8,312.1 432.3,313.4 442.8,314.6 453.3,315.9 463.8,317.2 474.4,318.7 484.9,320.3 495.4,322.0 505.9,323.7 516.4,325.3 526.9,327.0 537.4,328.9 547.9,330.9 558.5,332.9 569.0,334.8 579.5,336.9 590.0,339.0 " fill="none" stroke="#b7791f" stroke-width="3" stroke-linecap="round" stroke-linejoin="round" />
  <text x="618" y="313" class="axis-value">6682</text>
  <text x="618" y="339" class="axis-value">5744</text>
  <line x1="24" y1="345.0" x2="714" y2="345.0" class="separator" />
  <text x="24" y="374" class="label">Root Network</text>
  <polyline points="180.0,368.0 190.5,368.0 201.0,368.0 211.5,368.0 222.1,368.0 232.6,368.0 243.1,368.0 253.6,368.0 264.1,368.0 274.6,368.0 285.1,368.0 295.6,368.0 306.2,368.0 316.7,368.0 327.2,368.0 337.7,368.0 348.2,368.0 358.7,368.0 369.2,368.0 379.7,368.0 390.3,368.0 400.8,368.0 411.3,368.0 421.8,368.0 432.3,368.0 442.8,368.0 453.3,368.0 463.8,368.0 474.4,368.0 484.9,368.0 495.4,368.0 505.9,368.0 516.4,368.0 526.9,368.0 537.4,368.0 547.9,368.0 558.5,368.0 569.0,368.0 579.5,368.0 590.0,368.0 " fill="none" stroke="#319795" stroke-width="3" stroke-linecap="round" stroke-linejoin="round" />
  <text x="618" y="359" class="axis-value">12</text>
  <text x="618" y="385" class="axis-value">12</text>
  <line x1="24" y1="391.0" x2="714" y2="391.0" class="separator" />
  <text x="24" y="420" class="label">Spore</text>
  <polyline points="180.0,415.5 190.5,409.4 201.0,397.0 211.5,415.5 222.1,421.7 232.6,424.8 243.1,409.4 253.6,409.4 264.1,415.5 274.6,418.6 285.1,431.0 295.6,431.0 306.2,431.0 316.7,431.0 327.2,431.0 337.7,431.0 348.2,431.0 358.7,431.0 369.2,431.0 379.7,431.0 390.3,431.0 400.8,431.0 411.3,431.0 421.8,431.0 432.3,431.0 442.8,431.0 453.3,431.0 463.8,431.0 474.4,431.0 484.9,431.0 495.4,431.0 505.9,431.0 516.4,431.0 526.9,431.0 537.4,431.0 547.9,431.0 558.5,431.0 569.0,431.0 579.5,431.0 590.0,431.0 " fill="none" stroke="#e53e3e" stroke-width="3" stroke-linecap="round" stroke-linejoin="round" />
  <text x="618" y="405" class="axis-value">12</text>
  <text x="618" y="431" class="axis-value">1</text>
</svg>
