<svg xmlns="http://www.w3.org/2000/svg" width="760" height="438" viewBox="0 0 760 438" role="img" aria-labelledby="title desc">
  <title id="title">Organism Trends</title>
  <desc id="desc">Seven-day trends for total organisms and organism types.</desc>
  <rect width="760" height="438" rx="8" fill="#ffffff"/>
  <style>
    text { font-family: -apple-system, BlinkMacSystemFont, "Segoe UI", sans-serif; }
    .title { font-size: 18px; font-weight: 700; fill: #1f2933; }
    .subtitle { font-size: 12px; fill: #52606d; }
    .label { font-size: 13px; font-weight: 650; fill: #1f2933; }
    .axis-value { font-size: 11px; fill: #52606d; }
    .separator { stroke: #eef2f7; stroke-width: 1; }
  </style>
  <text x="24" y="32" class="title">Organism Trends</text>
  <text x="24" y="52" class="subtitle">Last 7 days range</text>
  <text x="24" y="98" class="label">Total organisms</text>
  <polyline points="180.0,109.0 190.5,108.9 201.0,108.7 211.5,99.7 222.1,97.4 232.6,95.6 243.1,94.2 253.6,93.1 264.1,92.6 274.6,92.6 285.1,92.6 295.6,91.4 306.2,90.7 316.7,91.6 327.2,90.0 337.7,88.3 348.2,86.9 358.7,85.2 369.2,83.4 379.7,82.0 390.3,80.6 400.8,79.4 411.3,78.3 421.8,78.2 432.3,78.9 442.8,79.8 453.3,80.9 463.8,81.4 474.4,81.2 484.9,80.8 495.4,80.0 505.9,79.6 516.4,77.8 526.9,78.0 537.4,77.1 547.9,75.0 558.5,75.4 569.0,99.0 579.5,97.1 590.0,94.7 " fill="none" stroke="#2f855a" stroke-width="3" stroke-linecap="round" stroke-linejoin="round" />
  <text x="618" y="83" class="axis-value">17376</text>
  <text x="618" y="109" class="axis-value">10249</text>
  <line x1="24" y1="115.0" x2="714" y2="115.0" class="separator" />
  <text x="24" y="144" class="label">Beetle</text>
  <polyline points="180.0,121.9 190.5,121.4 201.0,121.0 211.5,134.4 222.1,134.9 232.6,135.9 243.1,137.4 253.6,139.6 264.1,142.2 274.6,144.8 285.1,147.2 295.6,149.0 306.2,151.3 316.7,155.0 327.2,155.0 337.7,155.0 348.2,155.0 358.7,155.0 369.2,155.0 379.7,155.0 390.3,155.0 400.8,155.0 411.3,155.0 421.8,155.0 432.3,155.0 442.8,155.0 453.3,155.0 463.8,155.0 474.4,155.0 484.9,155.0 495.4,155.0 505.9,154.9 516.4,154.2 526.9,155.0 537.4,154.3 547.9,154.2 558.5,154.4 569.0,154.1 579.5,154.2 590.0,154.2 " fill="none" stroke="#805ad5" stroke-width="3" stroke-linecap="round" stroke-linejoin="round" />
  <text x="618" y="129" class="axis-value">7832</text>
  <text x="618" y="155" class="axis-value">0</text>
  <line x1="24" y1="161.0" x2="714" y2="161.0" class="separator" />
  <text x="24" y="190" class="label">Fern</text>
  <polyline points="180.0,201.0 190.5,201.0 201.0,201.0 211.5,168.2 222.1,170.1 232.6,172.0 243.1,173.7 253.6,175.3 264.1,176.5 274.6,177.1 285.1,177.2 295.6,177.2 306.2,177.0 316.7,176.4 327.2,175.8 337.7,175.2 348.2,174.7 358.7,174.1 369.2,173.4 379.7,172.9 390.3,172.4 400.8,171.9 411.3,171.5 421.8,171.1 432.3,170.8 442.8,170.5 453.3,170.1 463.8,169.7 474.4,169.4 484.9,169.1 495.4,168.7 505.9,168.4 516.4,168.1 526.9,167.8 537.4,167.5 547.9,167.2 558.5,167.0 569.0,178.6 579.5,178.3 590.0,177.7 " fill="none" stroke="#d53f8c" stroke-width="3" stroke-linecap="round" stroke-linejoin="round" />
  <text x="618" y="175" class="axis-value">4806</text>
  <text x="618" y="201" class="axis-value">0</text>
  <line x1="24" y1="207.0" x2="714" y2="207.0" class="separator" />
  <text x="24" y="236" class="label">Fox</text>
  <polyline points="180.0,247.0 190.5,247.0 201.0,247.0 211.5,245.7 222.1,242.4 232.6,239.1 243.1,235.5 253.6,231.8 264.1,228.0 274.6,224.7 285.1,221.6 295.6,218.2 306.2,214.9 316.7,213.0 327.2,214.7 337.7,216.1 348.2,217.6 358.7,218.5 369.2,219.5 379.7,221.2 390.3,223.1 400.8,225.4 411.3,227.5 421.8,230.2 432.3,233.3 442.8,236.9 453.3,241.1 463.8,243.9 474.4,245.2 484.9,245.8 495.4,245.8 505.9,246.7 516.4,246.0 526.9,246.0 537.4,246.9 547.9,244.0 558.5,245.2 569.0,244.6 579.5,241.3 590.0,237.5 " fill="none" stroke="#dd6b20" stroke-width="3" stroke-linecap="round" stroke-linejoin="round" />
  <text x="618" y="221" class="axis-value">3276</text>
  <text x="618" y="247" class="axis-value">3</text>
  <line x1="24" y1="253.0" x2="714" y2="253.0" class="separator" />
  <text x="24" y="282" class="label">Fungus</text>
  <polyline points="180.0,293.0 190.5,293.0 201.0,293.0 211.5,292.0 222.1,289.7 232.6,287.5 243.1,285.1 253.6,282.6 264.1,280.1 274.6,277.9 285.1,275.8 295.6,273.6 306.2,271.3 316.7,269.0 327.2,268.4 337.7,267.8 348.2,267.3 358.7,266.7 369.2,266.0 379.7,265.5 390.3,265.0 400.8,264.6 411.3,264.2 421.8,263.8 432.3,263.4 442.8,263.0 453.3,262.6 463.8,262.2 474.4,261.8 484.9,261.4 495.4,261.0 505.9,260.6 516.4,260.3 526.9,259.9 537.4,259.6 547.9,259.2 558.5,259.0 569.0,271.1 579.5,270.8 590.0,270.5 " fill="none" stroke="#3182ce" stroke-width="3" stroke-linecap="round" stroke-linejoin="round" />
  <text x="618" y="267" class="axis-value">4916</text>
  <text x="618" y="293" class="axis-value">12</text>
  <line x1="24" y1="299.0" x2="714" y2="299.0" class="separator" />
  <text x="24" y="328" class="label">Moss</text>
  <polyline points="180.0,305.0 190.5,318.0 201.0,331.6 211.5,339.0 222.1,339.0 232.6,339.0 243.1,339.0 253.6,339.0 264.1,339.0 274.6,339.0 285.1,339.0 295.6,339.0 306.2,339.0 316.7,339.0 327.2,339.0 337.7,339.0 348.2,339.0 358.7,339.0 369.2,339.0 379.7,339.0 390.3,339.0 400.8,339.0 411.3,339.0 421.8,339.0 432.3,339.0 442.8,339.0 453.3,339.0 463.8,339.0 474.4,339.0 484.9,339.0 495.4,339.0 505.9,339.0 516.4,339.0 526.9,339.0 537.4,339.0 547.9,339.0 558.5,339.0 569.0,339.0 579.5,339.0 590.0,339.0 " fill="none" stroke="#b7791f" stroke-width="3" stroke-linecap="round" stroke-linejoin="round" />
  <text x="618" y="313" class="axis-value">2587</text>
  <text x="618" y="339" class="axis-value">2407</text>
  <line x1="24" y1="345.0" x2="714" y2="345.0" class="separator" />
  <text x="24" y="374" class="label">Root Network</text>
  <polyline points="180.0,385.0 190.5,385.0 201.0,385.0 211.5,384.2 222.1,382.7 232.6,381.2 243.1,379.6 253.6,377.9 264.1,376.9 274.6,376.7 285.1,376.7 295.6,376.7 306.2,376.7 316.7,376.2 327.2,373.9 337.7,371.7 348.2,369.7 358.7,367.8 369.2,365.7 379.7,363.6 390.3,361.3 400.8,358.8 411.3,356.6 421.8,355.5 432.3,355.1 442.8,354.7 453.3,354.3 463.8,353.9 474.4,353.5 484.9,353.2 495.4,352.8 505.9,352.4 516.4,352.1 526.9,351.7 537.4,351.5 547.9,351.2 558.5,351.0 569.0,363.0 579.5,362.8 590.0,362.7 " fill="none" stroke="#319795" stroke-width="3" stroke-linecap="round" stroke-linejoin="round" />
  <text x="618" y="359" class="axis-value">4856</text>
  <text x="618" y="385" class="axis-value">12</text>
  <line x1="24" y1="391.0" x2="714" y2="391.0" class="separator" />
  <text x="24" y="420" class="label">Spore</text>
  <polyline points="180.0,414.0 190.5,414.0 201.0,414.0 211.5,414.0 222.1,414.0 232.6,414.0 243.1,414.0 253.6,414.0 264.1,414.0 274.6,414.0 285.1,414.0 295.6,414.0 306.2,414.0 316.7,414.0 327.2,414.0 337.7,414.0 348.2,414.0 358.7,414.0 369.2,414.0 379.7,414.0 390.3,414.0 400.8,414.0 411.3,414.0 421.8,414.0 432.3,414.0 442.8,414.0 453.3,414.0 463.8,414.0 474.4,414.0 484.9,414.0 495.4,414.0 505.9,414.0 516.4,414.0 526.9,414.0 537.4,414.0 547.9,414.0 558.5,414.0 569.0,414.0 579.5,414.0 590.0,414.0 " fill="none" stroke="#e53e3e" stroke-width="3" stroke-linecap="round" stroke-linejoin="round" />
  <text x="618" y="405" class="axis-value">1</text>
  <text x="618" y="431" class="axis-value">1</text>
</svg>
