<svg xmlns="http://www.w3.org/2000/svg" width="760" height="438" viewBox="0 0 760 438" role="img" aria-labelledby="title desc">
  <title id="title">Organism Trends</title>
  <desc id="desc">Seven-day trends for total organisms and organism types.</desc>
  <rect width="760" height="438" rx="8" fill="#ffffff"/>
  <style>
    text { font-family: -apple-system, BlinkMacSystemFont, "Segoe UI", sans-serif; }
    .title { font-size: 18px; font-weight: 700; fill: #1f2933; }
    .subtitle { font-size: 12px; fill: #52606d; }
    .label { font-size: 13px; font-weight: 650; fill: #1f2933; }
    .axis-value { font-size: 11px; fill: #52606d; }
    .separator { stroke: #eef2f7; stroke-width: 1; }
  </style>
  <text x="24" y="32" class="title">Organism Trends</text>
  <text x="24" y="52" class="subtitle">Last 7 days range</text>
  <text x="24" y="98" class="label">Total organisms</text>
  <polyline points="180.0,90.8 190.5,91.4 201.0,92.3 211.5,92.9 222.1,93.3 232.6,92.9 243.1,92.2 253.6,91.8 264.1,90.6 274.6,90.5 285.1,89.6 295.6,88.4 306.2,109.0 316.7,107.1 327.2,105.1 337.7,103.1 348.2,100.9 358.7,99.0 369.2,96.7 379.7,94.9 390.3,93.0 400.8,91.0 411.3,89.5 421.8,88.1 432.3,86.1 442.8,84.7 453.3,83.6 463.8,81.4 474.4,80.7 484.9,80.1 495.4,79.6 505.9,79.3 516.4,79.2 526.9,78.9 537.4,79.4 547.9,79.3 558.5,79.0 569.0,78.5 579.5,76.6 590.0,75.0 " fill="none" stroke="#2f855a" stroke-width="3" stroke-linecap="round" stroke-linejoin="round" />
  <text x="618" y="83" class="axis-value">20683</text>
  <text x="618" y="109" class="axis-value">12029</text>
  <line x1="24" y1="115.0" x2="714" y2="115.0" class="separator" />
  <text x="24" y="144" class="label">Beetle</text>
  <polyline points="180.0,154.9 190.5,154.9 201.0,155.0 211.5,154.8 222.1,154.7 232.6,154.0 243.1,154.8 253.6,154.0 264.1,145.6 274.6,154.5 285.1,144.4 295.6,154.8 306.2,143.9 316.7,142.6 327.2,141.8 337.7,143.4 348.2,142.3 358.7,146.0 369.2,142.0 379.7,144.3 390.3,145.8 400.8,141.9 411.3,144.3 421.8,146.4 432.3,142.7 442.8,145.1 453.3,154.5 463.8,143.5 474.4,153.0 484.9,154.5 495.4,154.9 505.9,154.5 516.4,153.0 526.9,146.6 537.4,155.0 547.9,154.8 558.5,154.0 569.0,150.8 579.5,131.7 590.0,121.0 " fill="none" stroke="#805ad5" stroke-width="3" stroke-linecap="round" stroke-linejoin="round" />
  <text x="618" y="129" class="axis-value">517</text>
  <text x="618" y="155" class="axis-value">1</text>
  <line x1="24" y1="161.0" x2="714" y2="161.0" class="separator" />
  <text x="24" y="190" class="label">Fern</text>
  <polyline points="180.0,178.5 190.5,177.4 201.0,176.3 211.5,175.1 222.1,174.0 232.6,172.9 243.1,171.9 253.6,170.6 264.1,169.7 274.6,168.8 285.1,167.8 295.6,167.0 306.2,201.0 316.7,200.2 327.2,199.0 337.7,196.9 348.2,194.6 358.7,192.3 369.2,190.0 379.7,188.1 390.3,186.1 400.8,184.9 411.3,184.6 421.8,184.3 432.3,183.4 442.8,182.4 453.3,181.0 463.8,179.8 474.4,179.0 484.9,179.6 495.4,180.8 505.9,181.9 516.4,183.2 526.9,184.8 537.4,186.0 547.9,186.6 558.5,186.1 569.0,185.8 579.5,185.6 590.0,185.3 " fill="none" stroke="#d53f8c" stroke-width="3" stroke-linecap="round" stroke-linejoin="round" />
  <text x="618" y="175" class="axis-value">4781</text>
  <text x="618" y="201" class="axis-value">3146</text>
  <line x1="24" y1="207.0" x2="714" y2="207.0" class="separator" />
  <text x="24" y="236" class="label">Fox</text>
  <polyline points="180.0,236.0 190.5,238.2 201.0,241.1 211.5,243.7 222.1,245.6 232.6,246.2 243.1,246.0 253.6,246.8 264.1,246.5 274.6,246.4 285.1,246.9 295.6,244.7 306.2,247.0 316.7,244.5 327.2,241.9 337.7,239.1 348.2,236.3 358.7,233.6 369.2,230.9 379.7,228.4 390.3,225.7 400.8,223.1 411.3,220.6 421.8,218.1 432.3,215.5 442.8,214.5 453.3,213.8 463.8,213.1 474.4,213.0 484.9,213.0 495.4,213.0 505.9,213.0 516.4,213.0 526.9,213.0 537.4,213.0 547.9,213.0 558.5,213.0 569.0,213.0 579.5,213.0 590.0,213.0 " fill="none" stroke="#dd6b20" stroke-width="3" stroke-linecap="round" stroke-linejoin="round" />
  <text x="618" y="221" class="axis-value">4777</text>
  <text x="618" y="247" class="axis-value">14</text>
  <line x1="24" y1="253.0" x2="714" y2="253.0" class="separator" />
  <text x="24" y="282" class="label">Fungus</text>
  <polyline points="180.0,274.7 190.5,273.7 201.0,272.7 211.5,271.6 222.1,270.5 232.6,269.5 243.1,268.5 253.6,267.4 264.1,266.4 274.6,265.5 285.1,264.6 295.6,263.7 306.2,293.0 316.7,292.2 327.2,291.5 337.7,290.6 348.2,290.0 358.7,289.1 369.2,288.5 379.7,287.8 390.3,287.1 400.8,286.6 411.3,285.9 421.8,285.4 432.3,284.8 442.8,281.3 453.3,277.5 463.8,273.9 474.4,270.1 484.9,267.5 495.4,265.1 505.9,263.5 516.4,263.4 526.9,263.2 537.4,262.8 547.9,262.8 558.5,263.3 569.0,263.0 579.5,260.7 590.0,259.0 " fill="none" stroke="#3182ce" stroke-width="3" stroke-linecap="round" stroke-linejoin="round" />
  <text x="618" y="267" class="axis-value">5172</text>
  <text x="618" y="293" class="axis-value">3147</text>
  <line x1="24" y1="299.0" x2="714" y2="299.0" class="separator" />
  <text x="24" y="328" class="label">Moss</text>
  <polyline points="180.0,322.0 190.5,322.0 201.0,322.0 211.5,322.0 222.1,322.0 232.6,322.0 243.1,322.0 253.6,322.0 264.1,322.0 274.6,322.0 285.1,322.0 295.6,322.0 306.2,322.0 316.7,322.0 327.2,322.0 337.7,322.0 348.2,322.0 358.7,322.0 369.2,322.0 379.7,322.0 390.3,322.0 400.8,322.0 411.3,322.0 421.8,322.0 432.3,322.0 442.8,322.0 453.3,322.0 463.8,322.0 474.4,322.0 484.9,322.0 495.4,322.0 505.9,322.0 516.4,322.0 526.9,322.0 537.4,322.0 547.9,322.0 558.5,322.0 569.0,322.0 579.5,322.0 590.0,322.0 " fill="none" stroke="#b7791f" stroke-width="3" stroke-linecap="round" stroke-linejoin="round" />
  <text x="618" y="313" class="axis-value">2407</text>
  <text x="618" y="339" class="axis-value">2407</text>
  <line x1="24" y1="345.0" x2="714" y2="345.0" class="separator" />
  <text x="24" y="374" class="label">Root Network</text>
  <polyline points="180.0,363.2 190.5,362.1 201.0,360.9 211.5,359.6 222.1,358.4 232.6,357.3 243.1,356.2 253.6,354.9 264.1,353.8 274.6,352.8 285.1,352.1 295.6,351.0 306.2,385.0 316.7,384.7 327.2,384.2 337.7,384.2 348.2,384.2 358.7,384.2 369.2,384.2 379.7,384.1 390.3,384.0 400.8,384.0 411.3,383.9 421.8,383.8 432.3,383.8 442.8,383.5 453.3,383.0 463.8,382.7 474.4,382.0 484.9,380.9 495.4,380.0 505.9,379.1 516.4,378.1 526.9,377.2 537.4,376.4 547.9,375.3 558.5,374.2 569.0,373.1 579.5,372.1 590.0,369.7 " fill="none" stroke="#319795" stroke-width="3" stroke-linecap="round" stroke-linejoin="round" />
  <text x="618" y="359" class="axis-value">4840</text>
  <text x="618" y="385" class="axis-value">3144</text>
  <line x1="24" y1="391.0" x2="714" y2="391.0" class="separator" />
  <text x="24" y="420" class="label">Spore</text>
  <polyline points="180.0,414.0 190.5,414.0 201.0,414.0 211.5,414.0 222.1,414.0 232.6,414.0 243.1,414.0 253.6,414.0 264.1,414.0 274.6,414.0 285.1,414.0 295.6,414.0 306.2,414.0 316.7,414.0 327.2,414.0 337.7,414.0 348.2,414.0 358.7,414.0 369.2,414.0 379.7,414.0 390.3,414.0 400.8,414.0 411.3,414.0 421.8,414.0 432.3,414.0 442.8,414.0 453.3,414.0 463.8,414.0 474.4,414.0 484.9,414.0 495.4,414.0 505.9,414.0 516.4,414.0 526.9,414.0 537.4,414.0 547.9,414.0 558.5,414.0 569.0,414.0 579.5,414.0 590.0,414.0 " fill="none" stroke="#e53e3e" stroke-width="3" stroke-linecap="round" stroke-linejoin="round" />
  <text x="618" y="405" class="axis-value">1</text>
  <text x="618" y="431" class="axis-value">1</text>
</svg>
