<svg xmlns="http://www.w3.org/2000/svg" width="760" height="438" viewBox="0 0 760 438" role="img" aria-labelledby="title desc">
  <title id="title">Organism Trends</title>
  <desc id="desc">Seven-day trends for total organisms and organism types.</desc>
  <rect width="760" height="438" rx="8" fill="#ffffff"/>
  <style>
    text { font-family: -apple-system, BlinkMacSystemFont, "Segoe UI", sans-serif; }
    .title { font-size: 18px; font-weight: 700; fill: #1f2933; }
    .subtitle { font-size: 12px; fill: #52606d; }
    .label { font-size: 13px; font-weight: 650; fill: #1f2933; }
    .axis-value { font-size: 11px; fill: #52606d; }
    .separator { stroke: #eef2f7; stroke-width: 1; }
  </style>
  <text x="24" y="32" class="title">Organism Trends</text>
  <text x="24" y="52" class="subtitle">Last 7 days range</text>
  <text x="24" y="98" class="label">Total organisms</text>
  <polyline points="180.0,109.0 190.5,108.9 201.0,108.7 211.5,108.6 222.1,108.4 232.6,108.3 243.1,108.2 253.6,108.1 264.1,107.9 274.6,107.8 285.1,107.6 295.6,98.3 306.2,96.0 316.7,94.2 327.2,92.7 337.7,91.4 348.2,90.6 358.7,90.4 369.2,90.7 379.7,89.9 390.3,88.8 400.8,89.2 411.3,88.9 421.8,87.4 432.3,85.8 442.8,84.3 453.3,82.7 463.8,80.9 474.4,79.4 484.9,78.0 495.4,76.7 505.9,75.6 516.4,75.0 526.9,75.7 537.4,76.4 547.9,77.6 558.5,78.2 569.0,78.5 579.5,78.4 590.0,77.5 " fill="none" stroke="#2f855a" stroke-width="3" stroke-linecap="round" stroke-linejoin="round" />
  <text x="618" y="83" class="axis-value">16747</text>
  <text x="618" y="109" class="axis-value">10035</text>
  <line x1="24" y1="115.0" x2="714" y2="115.0" class="separator" />
  <text x="24" y="144" class="label">Beetle</text>
  <polyline points="180.0,125.0 190.5,124.6 201.0,124.2 211.5,123.8 222.1,123.4 232.6,123.0 243.1,122.6 253.6,122.3 264.1,121.9 274.6,121.4 285.1,121.0 295.6,134.4 306.2,134.7 316.7,135.5 327.2,136.8 337.7,138.8 348.2,141.1 358.7,143.5 369.2,146.1 379.7,148.0 390.3,149.8 400.8,153.0 411.3,155.0 421.8,155.0 432.3,155.0 442.8,155.0 453.3,155.0 463.8,155.0 474.4,155.0 484.9,155.0 495.4,155.0 505.9,155.0 516.4,155.0 526.9,155.0 537.4,155.0 547.9,155.0 558.5,155.0 569.0,155.0 579.5,155.0 590.0,154.9 " fill="none" stroke="#805ad5" stroke-width="3" stroke-linecap="round" stroke-linejoin="round" />
  <text x="618" y="129" class="axis-value">7832</text>
  <text x="618" y="155" class="axis-value">0</text>
  <line x1="24" y1="161.0" x2="714" y2="161.0" class="separator" />
  <text x="24" y="190" class="label">Fern</text>
  <polyline points="180.0,201.0 190.5,201.0 201.0,201.0 211.5,201.0 222.1,201.0 232.6,201.0 243.1,201.0 253.6,201.0 264.1,201.0 274.6,201.0 285.1,201.0 295.6,167.0 306.2,168.8 316.7,170.6 327.2,172.3 337.7,174.0 348.2,175.3 358.7,176.2 369.2,176.5 379.7,176.5 390.3,176.4 400.8,176.1 411.3,175.5 421.8,175.0 432.3,174.4 442.8,173.8 453.3,173.3 463.8,172.6 474.4,172.1 484.9,171.6 495.4,171.1 505.9,170.7 516.4,170.3 526.9,170.0 537.4,169.7 547.9,169.3 558.5,169.0 569.0,168.7 579.5,168.3 590.0,168.0 " fill="none" stroke="#d53f8c" stroke-width="3" stroke-linecap="round" stroke-linejoin="round" />
  <text x="618" y="175" class="axis-value">4665</text>
  <text x="618" y="201" class="axis-value">0</text>
  <line x1="24" y1="207.0" x2="714" y2="207.0" class="separator" />
  <text x="24" y="236" class="label">Fox</text>
  <polyline points="180.0,247.0 190.5,247.0 201.0,247.0 211.5,247.0 222.1,247.0 232.6,247.0 243.1,247.0 253.6,247.0 264.1,247.0 274.6,247.0 285.1,247.0 295.6,246.0 306.2,243.0 316.7,239.9 327.2,236.7 337.7,232.9 348.2,229.5 358.7,226.1 369.2,223.0 379.7,220.0 390.3,216.6 400.8,213.5 411.3,213.0 421.8,214.7 432.3,216.0 442.8,217.4 453.3,218.3 463.8,219.3 474.4,220.7 484.9,222.5 495.4,224.9 505.9,226.8 516.4,229.1 526.9,231.9 537.4,234.9 547.9,239.0 558.5,242.0 569.0,244.2 579.5,245.4 590.0,245.4 " fill="none" stroke="#dd6b20" stroke-width="3" stroke-linecap="round" stroke-linejoin="round" />
  <text x="618" y="221" class="axis-value">3252</text>
  <text x="618" y="247" class="axis-value">3</text>
  <line x1="24" y1="253.0" x2="714" y2="253.0" class="separator" />
  <text x="24" y="282" class="label">Fungus</text>
  <polyline points="180.0,293.0 190.5,293.0 201.0,293.0 211.5,293.0 222.1,293.0 232.6,293.0 243.1,293.0 253.6,293.0 264.1,293.0 274.6,293.0 285.1,293.0 295.6,292.1 306.2,289.9 316.7,287.7 327.2,285.4 337.7,282.7 348.2,280.3 358.7,277.9 369.2,275.7 379.7,273.5 390.3,271.1 400.8,268.9 411.3,267.0 421.8,266.5 432.3,265.9 442.8,265.4 453.3,264.8 463.8,264.1 474.4,263.6 484.9,263.0 495.4,262.5 505.9,262.1 516.4,261.8 526.9,261.4 537.4,261.0 547.9,260.6 558.5,260.2 569.0,259.8 579.5,259.4 590.0,259.0 " fill="none" stroke="#3182ce" stroke-width="3" stroke-linecap="round" stroke-linejoin="round" />
  <text x="618" y="267" class="axis-value">4582</text>
  <text x="618" y="293" class="axis-value">12</text>
  <line x1="24" y1="299.0" x2="714" y2="299.0" class="separator" />
  <text x="24" y="328" class="label">Moss</text>
  <polyline points="180.0,305.0 190.5,308.2 201.0,311.2 211.5,314.5 222.1,317.9 232.6,321.0 243.1,324.1 253.6,327.0 264.1,330.2 274.6,333.6 285.1,337.1 295.6,339.0 306.2,339.0 316.7,339.0 327.2,339.0 337.7,339.0 348.2,339.0 358.7,339.0 369.2,339.0 379.7,339.0 390.3,339.0 400.8,339.0 411.3,339.0 421.8,339.0 432.3,339.0 442.8,339.0 453.3,339.0 463.8,339.0 474.4,339.0 484.9,339.0 495.4,339.0 505.9,339.0 516.4,339.0 526.9,339.0 537.4,339.0 547.9,339.0 558.5,339.0 569.0,339.0 579.5,339.0 590.0,339.0 " fill="none" stroke="#b7791f" stroke-width="3" stroke-linecap="round" stroke-linejoin="round" />
  <text x="618" y="313" class="axis-value">3102</text>
  <text x="618" y="339" class="axis-value">2407</text>
  <line x1="24" y1="345.0" x2="714" y2="345.0" class="separator" />
  <text x="24" y="374" class="label">Root Network</text>
  <polyline points="180.0,385.0 190.5,385.0 201.0,385.0 211.5,385.0 222.1,385.0 232.6,385.0 243.1,385.0 253.6,385.0 264.1,385.0 274.6,385.0 285.1,385.0 295.6,384.3 306.2,382.9 316.7,381.4 327.2,379.9 337.7,378.1 348.2,376.7 358.7,376.2 369.2,376.2 379.7,376.2 390.3,376.2 400.8,376.2 411.3,375.1 421.8,372.7 432.3,370.6 442.8,368.5 453.3,366.7 463.8,364.7 474.4,362.5 484.9,360.2 495.4,357.6 505.9,355.3 516.4,353.6 526.9,353.3 537.4,352.9 547.9,352.5 558.5,352.1 569.0,351.7 579.5,351.4 590.0,351.0 " fill="none" stroke="#319795" stroke-width="3" stroke-linecap="round" stroke-linejoin="round" />
  <text x="618" y="359" class="axis-value">4559</text>
  <text x="618" y="385" class="axis-value">12</text>
  <line x1="24" y1="391.0" x2="714" y2="391.0" class="separator" />
  <text x="24" y="420" class="label">Spore</text>
  <polyline points="180.0,414.0 190.5,414.0 201.0,414.0 211.5,414.0 222.1,414.0 232.6,414.0 243.1,414.0 253.6,414.0 264.1,414.0 274.6,414.0 285.1,414.0 295.6,414.0 306.2,414.0 316.7,414.0 327.2,414.0 337.7,414.0 348.2,414.0 358.7,414.0 369.2,414.0 379.7,414.0 390.3,414.0 400.8,414.0 411.3,414.0 421.8,414.0 432.3,414.0 442.8,414.0 453.3,414.0 463.8,414.0 474.4,414.0 484.9,414.0 495.4,414.0 505.9,414.0 516.4,414.0 526.9,414.0 537.4,414.0 547.9,414.0 558.5,414.0 569.0,414.0 579.5,414.0 590.0,414.0 " fill="none" stroke="#e53e3e" stroke-width="3" stroke-linecap="round" stroke-linejoin="round" />
  <text x="618" y="405" class="axis-value">1</text>
  <text x="618" y="431" class="axis-value">1</text>
</svg>
