<svg xmlns="http://www.w3.org/2000/svg" width="760" height="438" viewBox="0 0 760 438" role="img" aria-labelledby="title desc">
  <title id="title">Organism Trends</title>
  <desc id="desc">Seven-day trends for total organisms and organism types.</desc>
  <rect width="760" height="438" rx="8" fill="#ffffff"/>
  <style>
    text { font-family: -apple-system, BlinkMacSystemFont, "Segoe UI", sans-serif; }
    .title { font-size: 18px; font-weight: 700; fill: #1f2933; }
    .subtitle { font-size: 12px; fill: #52606d; }
    .label { font-size: 13px; font-weight: 650; fill: #1f2933; }
    .axis-value { font-size: 11px; fill: #52606d; }
    .separator { stroke: #eef2f7; stroke-width: 1; }
  </style>
  <text x="24" y="32" class="title">Organism Trends</text>
  <text x="24" y="52" class="subtitle">Last 7 days range</text>
  <text x="24" y="98" class="label">Total organisms</text>
  <polyline points="180.0,101.1 190.5,100.7 201.0,101.0 211.5,99.9 222.1,98.6 232.6,99.9 243.1,97.9 253.6,95.8 264.1,94.0 274.6,91.7 285.1,89.5 295.6,87.8 306.2,86.1 316.7,84.7 327.2,84.7 337.7,85.5 348.2,86.7 358.7,87.7 369.2,88.2 379.7,87.5 390.3,86.5 400.8,86.1 411.3,83.8 421.8,84.1 432.3,82.6 442.8,81.5 453.3,109.0 463.8,106.7 474.4,103.6 484.9,100.8 495.4,97.5 505.9,94.6 516.4,92.1 526.9,89.4 537.4,86.4 547.9,84.0 558.5,82.2 569.0,80.3 579.5,77.1 590.0,75.0 " fill="none" stroke="#2f855a" stroke-width="3" stroke-linecap="round" stroke-linejoin="round" />
  <text x="618" y="83" class="axis-value">18468</text>
  <text x="618" y="109" class="axis-value">12174</text>
  <line x1="24" y1="115.0" x2="714" y2="115.0" class="separator" />
  <text x="24" y="144" class="label">Beetle</text>
  <polyline points="180.0,121.0 190.5,127.3 201.0,134.5 211.5,139.8 222.1,144.6 232.6,155.0 243.1,155.0 253.6,155.0 264.1,155.0 274.6,155.0 285.1,155.0 295.6,155.0 306.2,155.0 316.7,155.0 327.2,155.0 337.7,155.0 348.2,155.0 358.7,155.0 369.2,154.9 379.7,154.9 390.3,154.8 400.8,154.9 411.3,153.0 421.8,154.9 432.3,153.4 442.8,154.9 453.3,153.0 463.8,153.1 474.4,153.0 484.9,153.2 495.4,153.1 505.9,153.0 516.4,153.4 526.9,153.6 537.4,153.0 547.9,153.2 558.5,153.6 569.0,154.9 579.5,153.2 590.0,153.5 " fill="none" stroke="#805ad5" stroke-width="3" stroke-linecap="round" stroke-linejoin="round" />
  <text x="618" y="129" class="axis-value">3396</text>
  <text x="618" y="155" class="axis-value">0</text>
  <line x1="24" y1="161.0" x2="714" y2="161.0" class="separator" />
  <text x="24" y="190" class="label">Fern</text>
  <polyline points="180.0,192.0 190.5,195.5 201.0,196.6 211.5,196.7 222.1,196.2 232.6,194.6 243.1,192.6 253.6,190.6 264.1,188.9 274.6,186.7 285.1,184.6 295.6,182.9 306.2,181.3 316.7,179.9 327.2,178.7 337.7,177.6 348.2,176.5 358.7,175.3 369.2,174.1 379.7,173.0 390.3,171.8 400.8,170.6 411.3,169.8 421.8,168.7 432.3,167.8 442.8,167.0 453.3,201.0 463.8,200.2 474.4,198.5 484.9,196.5 495.4,193.8 505.9,191.6 516.4,189.4 526.9,187.5 537.4,185.6 547.9,184.6 558.5,184.9 569.0,183.9 579.5,183.0 590.0,181.7 " fill="none" stroke="#d53f8c" stroke-width="3" stroke-linecap="round" stroke-linejoin="round" />
  <text x="618" y="175" class="axis-value">4788</text>
  <text x="618" y="201" class="axis-value">3156</text>
  <line x1="24" y1="207.0" x2="714" y2="207.0" class="separator" />
  <text x="24" y="236" class="label">Fox</text>
  <polyline points="180.0,235.7 190.5,232.9 201.0,230.2 211.5,227.5 222.1,224.9 232.6,222.9 243.1,224.2 253.6,225.4 264.1,226.4 274.6,227.1 285.1,228.1 295.6,229.7 306.2,231.6 316.7,233.2 327.2,235.5 337.7,237.8 348.2,240.8 358.7,243.7 369.2,245.6 379.7,246.1 390.3,246.2 400.8,247.0 411.3,246.3 421.8,246.5 432.3,246.6 442.8,244.9 453.3,246.4 463.8,243.9 474.4,240.9 484.9,238.0 495.4,234.9 505.9,232.1 516.4,229.4 526.9,226.6 537.4,223.9 547.9,221.1 558.5,218.6 569.0,215.6 579.5,213.8 590.0,213.0 " fill="none" stroke="#dd6b20" stroke-width="3" stroke-linecap="round" stroke-linejoin="round" />
  <text x="618" y="221" class="axis-value">4622</text>
  <text x="618" y="247" class="axis-value">29</text>
  <line x1="24" y1="253.0" x2="714" y2="253.0" class="separator" />
  <text x="24" y="282" class="label">Fungus</text>
  <polyline points="180.0,293.0 190.5,289.1 201.0,285.4 211.5,281.6 222.1,278.0 232.6,273.9 243.1,272.8 253.6,271.8 264.1,271.0 274.6,269.9 285.1,268.8 295.6,268.0 306.2,267.2 316.7,266.5 327.2,265.9 337.7,265.3 348.2,264.7 358.7,263.9 369.2,263.3 379.7,262.6 390.3,261.9 400.8,261.2 411.3,260.7 421.8,260.0 432.3,259.5 442.8,259.0 453.3,276.9 463.8,276.5 474.4,276.0 484.9,275.5 495.4,275.0 505.9,274.6 516.4,274.1 526.9,273.7 537.4,273.4 547.9,272.9 558.5,272.5 569.0,272.1 579.5,271.0 590.0,268.6 " fill="none" stroke="#3182ce" stroke-width="3" stroke-linecap="round" stroke-linejoin="round" />
  <text x="618" y="267" class="axis-value">4899</text>
  <text x="618" y="293" class="axis-value">1603</text>
  <line x1="24" y1="299.0" x2="714" y2="299.0" class="separator" />
  <text x="24" y="328" class="label">Moss</text>
  <polyline points="180.0,322.0 190.5,322.0 201.0,322.0 211.5,322.0 222.1,322.0 232.6,322.0 243.1,322.0 253.6,322.0 264.1,322.0 274.6,322.0 285.1,322.0 295.6,322.0 306.2,322.0 316.7,322.0 327.2,322.0 337.7,322.0 348.2,322.0 358.7,322.0 369.2,322.0 379.7,322.0 390.3,322.0 400.8,322.0 411.3,322.0 421.8,322.0 432.3,322.0 442.8,322.0 453.3,322.0 463.8,322.0 474.4,322.0 484.9,322.0 495.4,322.0 505.9,322.0 516.4,322.0 526.9,322.0 537.4,322.0 547.9,322.0 558.5,322.0 569.0,322.0 579.5,322.0 590.0,322.0 " fill="none" stroke="#b7791f" stroke-width="3" stroke-linecap="round" stroke-linejoin="round" />
  <text x="618" y="313" class="axis-value">2407</text>
  <text x="618" y="339" class="axis-value">2407</text>
  <line x1="24" y1="345.0" x2="714" y2="345.0" class="separator" />
  <text x="24" y="374" class="label">Root Network</text>
  <polyline points="180.0,385.0 190.5,383.9 201.0,383.9 211.5,383.9 222.1,383.9 232.6,383.4 243.1,380.3 253.6,377.1 264.1,374.3 274.6,371.5 285.1,368.5 295.6,365.2 306.2,361.5 316.7,358.4 327.2,356.6 337.7,356.1 348.2,355.5 358.7,354.9 369.2,354.4 379.7,353.8 390.3,353.3 400.8,352.7 411.3,352.2 421.8,351.7 432.3,351.4 442.8,351.0 453.3,366.3 463.8,366.2 474.4,366.0 484.9,366.0 495.4,366.0 505.9,366.0 516.4,365.9 526.9,365.9 537.4,365.9 547.9,365.9 558.5,365.8 569.0,365.8 579.5,365.7 590.0,365.5 " fill="none" stroke="#319795" stroke-width="3" stroke-linecap="round" stroke-linejoin="round" />
  <text x="618" y="359" class="axis-value">4844</text>
  <text x="618" y="385" class="axis-value">1076</text>
  <line x1="24" y1="391.0" x2="714" y2="391.0" class="separator" />
  <text x="24" y="420" class="label">Spore</text>
  <polyline points="180.0,414.0 190.5,414.0 201.0,414.0 211.5,414.0 222.1,414.0 232.6,414.0 243.1,414.0 253.6,414.0 264.1,414.0 274.6,414.0 285.1,414.0 295.6,414.0 306.2,414.0 316.7,414.0 327.2,414.0 337.7,414.0 348.2,414.0 358.7,414.0 369.2,414.0 379.7,414.0 390.3,414.0 400.8,414.0 411.3,414.0 421.8,414.0 432.3,414.0 442.8,414.0 453.3,414.0 463.8,414.0 474.4,414.0 484.9,414.0 495.4,414.0 505.9,414.0 516.4,414.0 526.9,414.0 537.4,414.0 547.9,414.0 558.5,414.0 569.0,414.0 579.5,414.0 590.0,414.0 " fill="none" stroke="#e53e3e" stroke-width="3" stroke-linecap="round" stroke-linejoin="round" />
  <text x="618" y="405" class="axis-value">1</text>
  <text x="618" y="431" class="axis-value">1</text>
</svg>
