<svg xmlns="http://www.w3.org/2000/svg" width="760" height="438" viewBox="0 0 760 438" role="img" aria-labelledby="title desc">
  <title id="title">Organism Trends</title>
  <desc id="desc">Seven-day trends for total organisms and organism types.</desc>
  <rect width="760" height="438" rx="8" fill="#ffffff"/>
  <style>
    text { font-family: -apple-system, BlinkMacSystemFont, "Segoe UI", sans-serif; }
    .title { font-size: 18px; font-weight: 700; fill: #1f2933; }
    .subtitle { font-size: 12px; fill: #52606d; }
    .label { font-size: 13px; font-weight: 650; fill: #1f2933; }
    .axis-value { font-size: 11px; fill: #52606d; }
    .separator { stroke: #eef2f7; stroke-width: 1; }
  </style>
  <text x="24" y="32" class="title">Organism Trends</text>
  <text x="24" y="52" class="subtitle">Last 7 days range</text>
  <text x="24" y="98" class="label">Total organisms</text>
  <polyline points="180.0,109.0 190.5,108.9 201.0,108.7 211.5,108.6 222.1,108.5 232.6,108.3 243.1,108.2 253.6,108.0 264.1,99.1 274.6,96.6 285.1,94.6 295.6,93.0 306.2,91.8 316.7,90.9 327.2,90.7 337.7,91.0 348.2,90.1 358.7,89.1 369.2,89.8 379.7,89.1 390.3,87.5 400.8,86.0 411.3,84.4 421.8,82.6 432.3,80.7 442.8,79.3 453.3,77.8 463.8,76.6 474.4,75.6 484.9,75.5 495.4,76.2 505.9,77.1 516.4,78.2 526.9,78.9 537.4,78.8 547.9,78.2 558.5,77.6 569.0,76.9 579.5,76.0 590.0,75.0 " fill="none" stroke="#2f855a" stroke-width="3" stroke-linecap="round" stroke-linejoin="round" />
  <text x="618" y="83" class="axis-value">16797</text>
  <text x="618" y="109" class="axis-value">10110</text>
  <line x1="24" y1="115.0" x2="714" y2="115.0" class="separator" />
  <text x="24" y="144" class="label">Beetle</text>
  <polyline points="180.0,123.9 190.5,123.4 201.0,123.1 211.5,122.7 222.1,122.3 232.6,121.9 243.1,121.4 253.6,121.0 264.1,134.4 274.6,134.6 285.1,135.4 295.6,136.8 306.2,138.6 316.7,141.0 327.2,143.5 337.7,146.1 348.2,148.1 358.7,149.8 369.2,153.5 379.7,155.0 390.3,155.0 400.8,155.0 411.3,155.0 421.8,155.0 432.3,155.0 442.8,155.0 453.3,155.0 463.8,155.0 474.4,155.0 484.9,155.0 495.4,155.0 505.9,155.0 516.4,155.0 526.9,155.0 537.4,155.0 547.9,155.0 558.5,155.0 569.0,154.9 579.5,154.5 590.0,155.0 " fill="none" stroke="#805ad5" stroke-width="3" stroke-linecap="round" stroke-linejoin="round" />
  <text x="618" y="129" class="axis-value">7814</text>
  <text x="618" y="155" class="axis-value">0</text>
  <line x1="24" y1="161.0" x2="714" y2="161.0" class="separator" />
  <text x="24" y="190" class="label">Fern</text>
  <polyline points="180.0,201.0 190.5,201.0 201.0,201.0 211.5,201.0 222.1,201.0 232.6,201.0 243.1,201.0 253.6,201.0 264.1,167.0 274.6,168.9 285.1,170.8 295.6,172.6 306.2,174.1 316.7,175.5 327.2,176.4 337.7,176.7 348.2,176.7 358.7,176.6 369.2,176.2 379.7,175.7 390.3,175.1 400.8,174.6 411.3,174.0 421.8,173.4 432.3,172.7 442.8,172.2 453.3,171.7 463.8,171.2 474.4,170.9 484.9,170.5 495.4,170.2 505.9,169.8 516.4,169.5 526.9,169.1 537.4,168.8 547.9,168.5 558.5,168.2 569.0,167.8 579.5,167.5 590.0,167.2 " fill="none" stroke="#d53f8c" stroke-width="3" stroke-linecap="round" stroke-linejoin="round" />
  <text x="618" y="175" class="axis-value">4707</text>
  <text x="618" y="201" class="axis-value">0</text>
  <line x1="24" y1="207.0" x2="714" y2="207.0" class="separator" />
  <text x="24" y="236" class="label">Fox</text>
  <polyline points="180.0,247.0 190.5,247.0 201.0,247.0 211.5,247.0 222.1,247.0 232.6,247.0 243.1,247.0 253.6,247.0 264.1,246.5 274.6,243.3 285.1,240.1 295.6,236.6 306.2,233.1 316.7,229.4 327.2,226.0 337.7,222.9 348.2,219.5 358.7,216.4 369.2,213.0 379.7,213.1 390.3,214.9 400.8,216.3 411.3,217.5 421.8,218.3 432.3,219.5 442.8,221.0 453.3,223.1 463.8,225.3 474.4,227.3 484.9,230.0 495.4,232.8 505.9,236.5 516.4,240.4 526.9,243.5 537.4,245.1 547.9,245.3 558.5,245.5 569.0,246.1 579.5,246.7 590.0,244.9 " fill="none" stroke="#dd6b20" stroke-width="3" stroke-linecap="round" stroke-linejoin="round" />
  <text x="618" y="221" class="axis-value">3234</text>
  <text x="618" y="247" class="axis-value">3</text>
  <line x1="24" y1="253.0" x2="714" y2="253.0" class="separator" />
  <text x="24" y="282" class="label">Fungus</text>
  <polyline points="180.0,293.0 190.5,293.0 201.0,293.0 211.5,293.0 222.1,293.0 232.6,293.0 243.1,293.0 253.6,293.0 264.1,292.5 274.6,290.2 285.1,288.1 295.6,285.7 306.2,283.3 316.7,280.8 327.2,278.5 337.7,276.4 348.2,274.1 358.7,272.0 369.2,269.6 379.7,268.0 390.3,267.4 400.8,266.9 411.3,266.3 421.8,265.7 432.3,265.1 442.8,264.6 453.3,264.0 463.8,263.6 474.4,263.2 484.9,262.9 495.4,262.5 505.9,262.1 516.4,261.7 526.9,261.3 537.4,260.9 547.9,260.5 558.5,260.2 569.0,259.7 579.5,259.3 590.0,259.0 " fill="none" stroke="#3182ce" stroke-width="3" stroke-linecap="round" stroke-linejoin="round" />
  <text x="618" y="267" class="axis-value">4766</text>
  <text x="618" y="293" class="axis-value">12</text>
  <line x1="24" y1="299.0" x2="714" y2="299.0" class="separator" />
  <text x="24" y="328" class="label">Moss</text>
  <polyline points="180.0,305.0 190.5,309.5 201.0,313.6 211.5,317.8 222.1,322.0 232.6,326.4 243.1,330.9 253.6,335.6 264.1,339.0 274.6,339.0 285.1,339.0 295.6,339.0 306.2,339.0 316.7,339.0 327.2,339.0 337.7,339.0 348.2,339.0 358.7,339.0 369.2,339.0 379.7,339.0 390.3,339.0 400.8,339.0 411.3,339.0 421.8,339.0 432.3,339.0 442.8,339.0 453.3,339.0 463.8,339.0 474.4,339.0 484.9,339.0 495.4,339.0 505.9,339.0 516.4,339.0 526.9,339.0 537.4,339.0 547.9,339.0 558.5,339.0 569.0,339.0 579.5,339.0 590.0,339.0 " fill="none" stroke="#b7791f" stroke-width="3" stroke-linecap="round" stroke-linejoin="round" />
  <text x="618" y="313" class="axis-value">2926</text>
  <text x="618" y="339" class="axis-value">2407</text>
  <line x1="24" y1="345.0" x2="714" y2="345.0" class="separator" />
  <text x="24" y="374" class="label">Root Network</text>
  <polyline points="180.0,385.0 190.5,385.0 201.0,385.0 211.5,385.0 222.1,385.0 232.6,385.0 243.1,385.0 253.6,385.0 264.1,384.6 274.6,383.1 285.1,381.6 295.6,380.0 306.2,378.5 316.7,377.1 327.2,376.5 337.7,376.5 348.2,376.5 358.7,376.5 369.2,376.5 379.7,375.2 390.3,372.7 400.8,370.8 411.3,368.8 421.8,367.0 432.3,364.9 442.8,362.8 453.3,360.3 463.8,358.0 474.4,355.9 484.9,354.7 495.4,354.4 505.9,354.0 516.4,353.6 526.9,353.2 537.4,352.8 547.9,352.5 558.5,352.1 569.0,351.7 579.5,351.3 590.0,351.0 " fill="none" stroke="#319795" stroke-width="3" stroke-linecap="round" stroke-linejoin="round" />
  <text x="618" y="359" class="axis-value">4735</text>
  <text x="618" y="385" class="axis-value">12</text>
  <line x1="24" y1="391.0" x2="714" y2="391.0" class="separator" />
  <text x="24" y="420" class="label">Spore</text>
  <polyline points="180.0,414.0 190.5,414.0 201.0,414.0 211.5,414.0 222.1,414.0 232.6,414.0 243.1,414.0 253.6,414.0 264.1,414.0 274.6,414.0 285.1,414.0 295.6,414.0 306.2,414.0 316.7,414.0 327.2,414.0 337.7,414.0 348.2,414.0 358.7,414.0 369.2,414.0 379.7,414.0 390.3,414.0 400.8,414.0 411.3,414.0 421.8,414.0 432.3,414.0 442.8,414.0 453.3,414.0 463.8,414.0 474.4,414.0 484.9,414.0 495.4,414.0 505.9,414.0 516.4,414.0 526.9,414.0 537.4,414.0 547.9,414.0 558.5,414.0 569.0,414.0 579.5,414.0 590.0,414.0 " fill="none" stroke="#e53e3e" stroke-width="3" stroke-linecap="round" stroke-linejoin="round" />
  <text x="618" y="405" class="axis-value">1</text>
  <text x="618" y="431" class="axis-value">1</text>
</svg>
