<svg xmlns="http://www.w3.org/2000/svg" width="760" height="438" viewBox="0 0 760 438" role="img" aria-labelledby="title desc">
  <title id="title">Organism Trends</title>
  <desc id="desc">Seven-day trends for total organisms and organism types.</desc>
  <rect width="760" height="438" rx="8" fill="#ffffff"/>
  <style>
    text { font-family: -apple-system, BlinkMacSystemFont, "Segoe UI", sans-serif; }
    .title { font-size: 18px; font-weight: 700; fill: #1f2933; }
    .subtitle { font-size: 12px; fill: #52606d; }
    .label { font-size: 13px; font-weight: 650; fill: #1f2933; }
    .axis-value { font-size: 11px; fill: #52606d; }
    .separator { stroke: #eef2f7; stroke-width: 1; }
  </style>
  <text x="24" y="32" class="title">Organism Trends</text>
  <text x="24" y="52" class="subtitle">Last 7 days range</text>
  <text x="24" y="98" class="label">Total organisms</text>
  <polyline points="180.0,109.0 190.5,107.1 201.0,105.4 211.5,104.1 222.1,101.9 232.6,100.8 243.1,98.9 253.6,97.5 264.1,96.4 274.6,94.5 285.1,93.5 295.6,92.5 306.2,91.9 316.7,91.2 327.2,91.4 337.7,91.3 348.2,90.6 358.7,91.4 369.2,91.0 379.7,91.2 390.3,90.8 400.8,88.7 411.3,87.5 421.8,86.0 432.3,84.5 442.8,83.0 453.3,81.6 463.8,80.4 474.4,79.1 484.9,77.4 495.4,76.1 505.9,75.2 516.4,75.0 526.9,92.6 537.4,92.8 547.9,92.8 558.5,92.6 569.0,92.4 579.5,92.2 590.0,92.7 " fill="none" stroke="#2f855a" stroke-width="3" stroke-linecap="round" stroke-linejoin="round" />
  <text x="618" y="83" class="axis-value">23970</text>
  <text x="618" y="109" class="axis-value">14903</text>
  <line x1="24" y1="115.0" x2="714" y2="115.0" class="separator" />
  <text x="24" y="144" class="label">Beetle</text>
  <polyline points="180.0,153.0 190.5,152.4 201.0,152.9 211.5,154.9 222.1,152.5 232.6,153.2 243.1,152.4 253.6,152.9 264.1,154.9 274.6,152.7 285.1,154.1 295.6,154.9 306.2,154.6 316.7,153.2 327.2,154.8 337.7,154.1 348.2,151.4 358.7,155.0 369.2,153.2 379.7,155.0 390.3,155.0 400.8,149.9 411.3,148.0 421.8,145.4 432.3,142.6 442.8,139.9 453.3,137.2 463.8,134.7 474.4,132.1 484.9,129.4 495.4,127.3 505.9,127.0 516.4,127.0 526.9,125.9 537.4,125.1 547.9,124.3 558.5,123.4 569.0,122.3 579.5,121.2 590.0,121.0 " fill="none" stroke="#805ad5" stroke-width="3" stroke-linecap="round" stroke-linejoin="round" />
  <text x="618" y="129" class="axis-value">2427</text>
  <text x="618" y="155" class="axis-value">1</text>
  <line x1="24" y1="161.0" x2="714" y2="161.0" class="separator" />
  <text x="24" y="190" class="label">Fern</text>
  <polyline points="180.0,173.9 190.5,172.8 201.0,171.7 211.5,170.6 222.1,170.1 232.6,170.3 243.1,169.8 253.6,169.3 264.1,168.6 274.6,167.9 285.1,167.3 295.6,167.0 306.2,167.4 316.7,168.1 327.2,168.8 337.7,169.6 348.2,170.5 358.7,171.1 369.2,171.5 379.7,171.2 390.3,170.9 400.8,170.9 411.3,170.8 421.8,170.8 432.3,170.9 442.8,171.3 453.3,171.9 463.8,172.6 474.4,173.4 484.9,173.6 495.4,176.8 505.9,179.2 516.4,184.0 526.9,187.6 537.4,190.8 547.9,192.7 558.5,194.5 569.0,196.1 579.5,197.8 590.0,201.0 " fill="none" stroke="#d53f8c" stroke-width="3" stroke-linecap="round" stroke-linejoin="round" />
  <text x="618" y="175" class="axis-value">4202</text>
  <text x="618" y="201" class="axis-value">1393</text>
  <line x1="24" y1="207.0" x2="714" y2="207.0" class="separator" />
  <text x="24" y="236" class="label">Fox</text>
  <polyline points="180.0,232.5 190.5,230.0 201.0,227.5 211.5,224.8 222.1,222.2 232.6,219.9 243.1,217.2 253.6,215.1 264.1,214.2 274.6,213.6 285.1,213.0 295.6,213.0 306.2,213.0 316.7,213.0 327.2,213.0 337.7,213.0 348.2,213.0 358.7,213.0 369.2,213.0 379.7,213.0 390.3,213.0 400.8,213.0 411.3,213.0 421.8,213.0 432.3,213.0 442.8,213.0 453.3,213.0 463.8,213.0 474.4,213.0 484.9,213.0 495.4,213.0 505.9,213.0 516.4,213.0 526.9,247.0 537.4,246.6 547.9,246.6 558.5,246.6 569.0,246.6 579.5,246.6 590.0,246.6 " fill="none" stroke="#dd6b20" stroke-width="3" stroke-linecap="round" stroke-linejoin="round" />
  <text x="618" y="221" class="axis-value">4777</text>
  <text x="618" y="247" class="axis-value">158</text>
  <line x1="24" y1="253.0" x2="714" y2="253.0" class="separator" />
  <text x="24" y="282" class="label">Fungus</text>
  <polyline points="180.0,293.0 190.5,292.5 201.0,292.1 211.5,291.6 222.1,291.3 232.6,290.9 243.1,290.5 253.6,289.5 264.1,286.9 274.6,284.7 285.1,282.3 295.6,279.6 306.2,278.2 316.7,276.8 327.2,276.0 337.7,276.0 348.2,275.8 358.7,275.5 369.2,275.7 379.7,276.0 390.3,275.7 400.8,274.0 411.3,273.2 421.8,272.0 432.3,270.9 442.8,269.8 453.3,268.7 463.8,267.8 474.4,266.9 484.9,265.5 495.4,264.5 505.9,263.8 516.4,263.1 526.9,262.5 537.4,261.9 547.9,261.4 558.5,260.8 569.0,260.2 579.5,259.6 590.0,259.0 " fill="none" stroke="#3182ce" stroke-width="3" stroke-linecap="round" stroke-linejoin="round" />
  <text x="618" y="267" class="axis-value">6417</text>
  <text x="618" y="293" class="axis-value">3395</text>
  <line x1="24" y1="299.0" x2="714" y2="299.0" class="separator" />
  <text x="24" y="328" class="label">Moss</text>
  <polyline points="180.0,339.0 190.5,339.0 201.0,339.0 211.5,339.0 222.1,339.0 232.6,339.0 243.1,339.0 253.6,339.0 264.1,339.0 274.6,339.0 285.1,339.0 295.6,339.0 306.2,339.0 316.7,339.0 327.2,339.0 337.7,339.0 348.2,339.0 358.7,339.0 369.2,339.0 379.7,339.0 390.3,339.0 400.8,339.0 411.3,339.0 421.8,339.0 432.3,339.0 442.8,339.0 453.3,339.0 463.8,339.0 474.4,339.0 484.9,339.0 495.4,339.0 505.9,339.0 516.4,339.0 526.9,339.0 537.4,339.0 547.9,339.0 558.5,339.0 569.0,339.0 579.5,339.0 590.0,305.0 " fill="none" stroke="#b7791f" stroke-width="3" stroke-linecap="round" stroke-linejoin="round" />
  <text x="618" y="313" class="axis-value">2420</text>
  <text x="618" y="339" class="axis-value">2407</text>
  <line x1="24" y1="345.0" x2="714" y2="345.0" class="separator" />
  <text x="24" y="374" class="label">Root Network</text>
  <polyline points="180.0,385.0 190.5,385.0 201.0,384.9 211.5,384.9 222.1,384.9 232.6,384.9 243.1,384.8 253.6,384.7 264.1,384.6 274.6,384.4 285.1,384.1 295.6,383.7 306.2,383.2 316.7,382.7 327.2,382.2 337.7,381.8 348.2,381.3 358.7,380.8 369.2,380.3 379.7,379.7 390.3,379.1 400.8,378.5 411.3,377.4 421.8,376.2 432.3,374.9 442.8,373.5 453.3,372.1 463.8,371.0 474.4,369.4 484.9,367.5 495.4,363.7 505.9,359.9 516.4,355.8 526.9,354.9 537.4,354.2 547.9,353.7 558.5,353.0 569.0,352.3 579.5,351.6 590.0,351.0 " fill="none" stroke="#319795" stroke-width="3" stroke-linecap="round" stroke-linejoin="round" />
  <text x="618" y="359" class="axis-value">6395</text>
  <text x="618" y="385" class="axis-value">3186</text>
  <line x1="24" y1="391.0" x2="714" y2="391.0" class="separator" />
  <text x="24" y="420" class="label">Spore</text>
  <polyline points="180.0,414.0 190.5,414.0 201.0,414.0 211.5,414.0 222.1,414.0 232.6,414.0 243.1,414.0 253.6,414.0 264.1,414.0 274.6,414.0 285.1,414.0 295.6,414.0 306.2,414.0 316.7,414.0 327.2,414.0 337.7,414.0 348.2,414.0 358.7,414.0 369.2,414.0 379.7,414.0 390.3,414.0 400.8,414.0 411.3,414.0 421.8,414.0 432.3,414.0 442.8,414.0 453.3,414.0 463.8,414.0 474.4,414.0 484.9,414.0 495.4,414.0 505.9,414.0 516.4,414.0 526.9,414.0 537.4,414.0 547.9,414.0 558.5,414.0 569.0,414.0 579.5,414.0 590.0,414.0 " fill="none" stroke="#e53e3e" stroke-width="3" stroke-linecap="round" stroke-linejoin="round" />
  <text x="618" y="405" class="axis-value">1</text>
  <text x="618" y="431" class="axis-value">1</text>
</svg>
