<svg xmlns="http://www.w3.org/2000/svg" width="760" height="438" viewBox="0 0 760 438" role="img" aria-labelledby="title desc">
  <title id="title">Organism Trends</title>
  <desc id="desc">Seven-day trends for total organisms and organism types.</desc>
  <rect width="760" height="438" rx="8" fill="#ffffff"/>
  <style>
    text { font-family: -apple-system, BlinkMacSystemFont, "Segoe UI", sans-serif; }
    .title { font-size: 18px; font-weight: 700; fill: #1f2933; }
    .subtitle { font-size: 12px; fill: #52606d; }
    .label { font-size: 13px; font-weight: 650; fill: #1f2933; }
    .axis-value { font-size: 11px; fill: #52606d; }
    .separator { stroke: #eef2f7; stroke-width: 1; }
  </style>
  <text x="24" y="32" class="title">Organism Trends</text>
  <text x="24" y="52" class="subtitle">Last 7 days range</text>
  <text x="24" y="98" class="label">Total organisms</text>
  <polyline points="180.0,109.0 190.5,107.0 201.0,105.0 211.5,103.0 222.1,100.7 232.6,98.4 243.1,96.4 253.6,94.3 264.1,92.3 274.6,90.2 285.1,88.0 295.6,85.7 306.2,83.6 316.7,105.5 327.2,104.7 337.7,104.1 348.2,103.4 358.7,102.5 369.2,101.8 379.7,101.2 390.3,100.1 400.8,98.8 411.3,98.0 421.8,97.5 432.3,96.1 442.8,92.0 453.3,89.7 463.8,88.5 474.4,88.5 484.9,88.8 495.4,86.8 505.9,85.7 516.4,84.3 526.9,82.8 537.4,81.5 547.9,80.1 558.5,78.9 569.0,77.6 579.5,76.3 590.0,75.0 " fill="none" stroke="#2f855a" stroke-width="3" stroke-linecap="round" stroke-linejoin="round" />
  <text x="618" y="83" class="axis-value">7685</text>
  <text x="618" y="109" class="axis-value">5581</text>
  <line x1="24" y1="115.0" x2="714" y2="115.0" class="separator" />
  <text x="24" y="144" class="label">Beetle</text>
  <polyline points="180.0,155.0 190.5,155.0 201.0,155.0 211.5,155.0 222.1,155.0 232.6,155.0 243.1,155.0 253.6,155.0 264.1,155.0 274.6,155.0 285.1,155.0 295.6,155.0 306.2,155.0 316.7,155.0 327.2,155.0 337.7,155.0 348.2,155.0 358.7,155.0 369.2,155.0 379.7,155.0 390.3,155.0 400.8,155.0 411.3,155.0 421.8,155.0 432.3,155.0 442.8,155.0 453.3,155.0 463.8,155.0 474.4,153.1 484.9,150.2 495.4,147.4 505.9,144.8 516.4,141.9 526.9,138.9 537.4,135.9 547.9,133.0 558.5,130.2 569.0,127.4 579.5,124.2 590.0,121.0 " fill="none" stroke="#805ad5" stroke-width="3" stroke-linecap="round" stroke-linejoin="round" />
  <text x="618" y="129" class="axis-value">1219</text>
  <text x="618" y="155" class="axis-value">0</text>
  <line x1="24" y1="161.0" x2="714" y2="161.0" class="separator" />
  <text x="24" y="190" class="label">Fern</text>
  <polyline points="180.0,174.6 190.5,173.9 201.0,173.3 211.5,172.7 222.1,172.0 232.6,171.4 243.1,170.8 253.6,170.2 264.1,169.6 274.6,169.0 285.1,168.3 295.6,167.6 306.2,167.0 316.7,200.4 327.2,200.1 337.7,200.3 348.2,200.8 358.7,200.2 369.2,200.5 379.7,201.0 390.3,200.6 400.8,199.8 411.3,200.4 421.8,200.9 432.3,200.8 442.8,200.9 453.3,201.0 463.8,201.0 474.4,201.0 484.9,201.0 495.4,201.0 505.9,201.0 516.4,201.0 526.9,201.0 537.4,201.0 547.9,201.0 558.5,201.0 569.0,201.0 579.5,201.0 590.0,201.0 " fill="none" stroke="#d53f8c" stroke-width="3" stroke-linecap="round" stroke-linejoin="round" />
  <text x="618" y="175" class="axis-value">1429</text>
  <text x="618" y="201" class="axis-value">0</text>
  <line x1="24" y1="207.0" x2="714" y2="207.0" class="separator" />
  <text x="24" y="236" class="label">Fox</text>
  <polyline points="180.0,247.0 190.5,247.0 201.0,247.0 211.5,247.0 222.1,247.0 232.6,247.0 243.1,247.0 253.6,247.0 264.1,247.0 274.6,247.0 285.1,247.0 295.6,247.0 306.2,247.0 316.7,247.0 327.2,247.0 337.7,247.0 348.2,247.0 358.7,247.0 369.2,247.0 379.7,247.0 390.3,247.0 400.8,247.0 411.3,247.0 421.8,247.0 432.3,247.0 442.8,247.0 453.3,235.7 463.8,247.0 474.4,235.7 484.9,213.0 495.4,213.0 505.9,213.0 516.4,213.0 526.9,213.0 537.4,213.0 547.9,213.0 558.5,213.0 569.0,213.0 579.5,213.0 590.0,213.0 " fill="none" stroke="#dd6b20" stroke-width="3" stroke-linecap="round" stroke-linejoin="round" />
  <text x="618" y="221" class="axis-value">3</text>
  <text x="618" y="247" class="axis-value">0</text>
  <line x1="24" y1="253.0" x2="714" y2="253.0" class="separator" />
  <text x="24" y="282" class="label">Fungus</text>
  <polyline points="180.0,293.0 190.5,293.0 201.0,293.0 211.5,293.0 222.1,293.0 232.6,293.0 243.1,293.0 253.6,293.0 264.1,293.0 274.6,293.0 285.1,293.0 295.6,293.0 306.2,293.0 316.7,293.0 327.2,293.0 337.7,293.0 348.2,293.0 358.7,293.0 369.2,293.0 379.7,293.0 390.3,293.0 400.8,293.0 411.3,293.0 421.8,293.0 432.3,293.0 442.8,293.0 453.3,275.9 463.8,259.0 474.4,273.9 484.9,293.0 495.4,286.9 505.9,292.8 516.4,292.8 526.9,292.3 537.4,292.8 547.9,291.0 558.5,291.0 569.0,290.3 579.5,290.3 590.0,290.3 " fill="none" stroke="#3182ce" stroke-width="3" stroke-linecap="round" stroke-linejoin="round" />
  <text x="618" y="267" class="axis-value">151</text>
  <text x="618" y="293" class="axis-value">0</text>
  <line x1="24" y1="299.0" x2="714" y2="299.0" class="separator" />
  <text x="24" y="328" class="label">Moss</text>
  <polyline points="180.0,339.0 190.5,337.6 201.0,336.0 211.5,334.5 222.1,332.8 232.6,331.1 243.1,329.4 253.6,327.9 264.1,326.4 274.6,324.8 285.1,323.1 295.6,321.4 306.2,319.8 316.7,319.2 327.2,318.6 337.7,318.0 348.2,317.0 358.7,316.5 369.2,315.6 379.7,314.7 390.3,313.9 400.8,313.3 411.3,312.2 421.8,311.3 432.3,310.0 442.8,306.1 453.3,305.0 463.8,305.0 474.4,305.0 484.9,305.6 495.4,305.6 505.9,305.7 516.4,305.9 526.9,306.2 537.4,306.5 547.9,306.9 558.5,307.3 569.0,307.7 579.5,308.2 590.0,308.7 " fill="none" stroke="#b7791f" stroke-width="3" stroke-linecap="round" stroke-linejoin="round" />
  <text x="618" y="313" class="axis-value">6682</text>
  <text x="618" y="339" class="axis-value">4457</text>
  <line x1="24" y1="345.0" x2="714" y2="345.0" class="separator" />
  <text x="24" y="374" class="label">Root Network</text>
  <polyline points="180.0,368.0 190.5,368.0 201.0,368.0 211.5,368.0 222.1,368.0 232.6,368.0 243.1,368.0 253.6,368.0 264.1,368.0 274.6,368.0 285.1,368.0 295.6,368.0 306.2,368.0 316.7,368.0 327.2,368.0 337.7,368.0 348.2,368.0 358.7,368.0 369.2,368.0 379.7,368.0 390.3,368.0 400.8,368.0 411.3,368.0 421.8,368.0 432.3,368.0 442.8,368.0 453.3,368.0 463.8,368.0 474.4,368.0 484.9,368.0 495.4,368.0 505.9,368.0 516.4,368.0 526.9,368.0 537.4,368.0 547.9,368.0 558.5,368.0 569.0,368.0 579.5,368.0 590.0,368.0 " fill="none" stroke="#319795" stroke-width="3" stroke-linecap="round" stroke-linejoin="round" />
  <text x="618" y="359" class="axis-value">12</text>
  <text x="618" y="385" class="axis-value">12</text>
  <line x1="24" y1="391.0" x2="714" y2="391.0" class="separator" />
  <text x="24" y="420" class="label">Spore</text>
  <polyline points="180.0,431.0 190.5,431.0 201.0,431.0 211.5,431.0 222.1,431.0 232.6,431.0 243.1,431.0 253.6,431.0 264.1,431.0 274.6,431.0 285.1,431.0 295.6,431.0 306.2,431.0 316.7,415.9 327.2,412.1 337.7,397.0 348.2,404.6 358.7,397.0 369.2,412.1 379.7,423.4 390.3,423.4 400.8,397.0 411.3,404.6 421.8,419.7 432.3,415.9 442.8,431.0 453.3,431.0 463.8,431.0 474.4,431.0 484.9,431.0 495.4,431.0 505.9,431.0 516.4,431.0 526.9,431.0 537.4,431.0 547.9,431.0 558.5,431.0 569.0,431.0 579.5,431.0 590.0,431.0 " fill="none" stroke="#e53e3e" stroke-width="3" stroke-linecap="round" stroke-linejoin="round" />
  <text x="618" y="405" class="axis-value">10</text>
  <text x="618" y="431" class="axis-value">1</text>
</svg>
