<svg xmlns="http://www.w3.org/2000/svg" width="760" height="438" viewBox="0 0 760 438" role="img" aria-labelledby="title desc">
  <title id="title">Organism Trends</title>
  <desc id="desc">Seven-day trends for total organisms and organism types.</desc>
  <rect width="760" height="438" rx="8" fill="#ffffff"/>
  <style>
    text { font-family: -apple-system, BlinkMacSystemFont, "Segoe UI", sans-serif; }
    .title { font-size: 18px; font-weight: 700; fill: #1f2933; }
    .subtitle { font-size: 12px; fill: #52606d; }
    .label { font-size: 13px; font-weight: 650; fill: #1f2933; }
    .axis-value { font-size: 11px; fill: #52606d; }
    .separator { stroke: #eef2f7; stroke-width: 1; }
  </style>
  <text x="24" y="32" class="title">Organism Trends</text>
  <text x="24" y="52" class="subtitle">Last 7 days range</text>
  <text x="24" y="98" class="label">Total organisms</text>
  <polyline points="180.0,100.6 190.5,98.9 201.0,97.3 211.5,95.7 222.1,93.8 232.6,92.1 243.1,90.7 253.6,89.4 264.1,88.6 274.6,89.3 285.1,90.3 295.6,91.4 306.2,92.0 316.7,91.7 327.2,91.2 337.7,90.3 348.2,89.9 358.7,88.3 369.2,88.1 379.7,86.5 390.3,86.5 400.8,109.0 411.3,106.9 421.8,104.4 432.3,101.9 442.8,99.2 453.3,96.9 463.8,95.2 474.4,92.3 484.9,90.3 495.4,88.7 505.9,86.3 516.4,84.4 526.9,82.2 537.4,80.5 547.9,78.7 558.5,76.9 569.0,76.5 579.5,75.0 590.0,75.2 " fill="none" stroke="#2f855a" stroke-width="3" stroke-linecap="round" stroke-linejoin="round" />
  <text x="618" y="83" class="axis-value">19715</text>
  <text x="618" y="109" class="axis-value">12335</text>
  <line x1="24" y1="115.0" x2="714" y2="115.0" class="separator" />
  <text x="24" y="144" class="label">Beetle</text>
  <polyline points="180.0,155.0 190.5,155.0 201.0,154.9 211.5,154.9 222.1,154.9 232.6,154.9 243.1,154.9 253.6,154.9 264.1,154.9 274.6,154.7 285.1,154.5 295.6,154.5 306.2,154.7 316.7,154.5 327.2,154.5 337.7,153.4 348.2,152.9 358.7,154.5 369.2,138.1 379.7,139.2 390.3,152.9 400.8,128.8 411.3,128.2 421.8,130.2 432.3,130.4 442.8,131.8 453.3,134.0 463.8,153.9 474.4,131.6 484.9,136.4 495.4,153.9 505.9,131.6 516.4,136.4 526.9,128.4 537.4,133.2 547.9,136.4 558.5,130.4 569.0,146.5 579.5,121.0 590.0,146.5 " fill="none" stroke="#805ad5" stroke-width="3" stroke-linecap="round" stroke-linejoin="round" />
  <text x="618" y="129" class="axis-value">256</text>
  <text x="618" y="155" class="axis-value">0</text>
  <line x1="24" y1="161.0" x2="714" y2="161.0" class="separator" />
  <text x="24" y="190" class="label">Fern</text>
  <polyline points="180.0,193.4 190.5,191.4 201.0,189.7 211.5,187.8 222.1,185.6 232.6,183.8 243.1,182.1 253.6,180.7 264.1,179.5 274.6,178.5 285.1,177.3 295.6,176.2 306.2,175.0 316.7,173.9 327.2,172.9 337.7,171.5 348.2,170.5 358.7,169.8 369.2,168.7 379.7,167.9 390.3,167.0 400.8,201.0 411.3,200.2 421.8,198.2 432.3,196.0 442.8,193.4 453.3,191.2 463.8,189.1 474.4,187.3 484.9,185.8 495.4,184.9 505.9,185.1 516.4,184.2 526.9,183.3 537.4,182.0 547.9,180.6 558.5,179.7 569.0,179.9 579.5,181.0 590.0,182.0 " fill="none" stroke="#d53f8c" stroke-width="3" stroke-linecap="round" stroke-linejoin="round" />
  <text x="618" y="175" class="axis-value">4806</text>
  <text x="618" y="201" class="axis-value">3170</text>
  <line x1="24" y1="207.0" x2="714" y2="207.0" class="separator" />
  <text x="24" y="236" class="label">Fox</text>
  <polyline points="180.0,224.5 190.5,225.6 201.0,226.7 211.5,227.5 222.1,228.3 232.6,229.6 243.1,231.3 253.6,233.0 264.1,234.7 274.6,236.9 285.1,239.7 295.6,242.8 306.2,244.9 316.7,245.6 327.2,246.0 337.7,246.3 348.2,246.9 358.7,245.3 369.2,247.0 379.7,245.5 390.3,245.5 400.8,245.4 411.3,242.9 421.8,240.1 432.3,237.3 442.8,234.3 453.3,231.6 463.8,229.1 474.4,226.6 484.9,224.1 495.4,221.3 505.9,218.8 516.4,216.4 526.9,214.7 537.4,214.1 547.9,213.3 558.5,213.0 569.0,213.0 579.5,213.0 590.0,213.0 " fill="none" stroke="#dd6b20" stroke-width="3" stroke-linecap="round" stroke-linejoin="round" />
  <text x="618" y="221" class="axis-value">4777</text>
  <text x="618" y="247" class="axis-value">7</text>
  <line x1="24" y1="253.0" x2="714" y2="253.0" class="separator" />
  <text x="24" y="282" class="label">Fungus</text>
  <polyline points="180.0,285.9 190.5,284.1 201.0,282.4 211.5,280.6 222.1,278.7 232.6,276.9 243.1,275.3 253.6,274.0 264.1,272.9 274.6,271.8 285.1,270.5 295.6,269.3 306.2,268.0 316.7,266.8 327.2,265.6 337.7,264.1 348.2,263.0 358.7,262.0 369.2,260.9 379.7,259.9 390.3,259.0 400.8,293.0 411.3,292.3 421.8,291.2 432.3,290.3 442.8,289.3 453.3,288.7 463.8,287.6 474.4,287.1 484.9,286.3 495.4,285.5 505.9,284.9 516.4,284.2 526.9,281.3 537.4,276.9 547.9,272.6 558.5,267.9 569.0,264.6 579.5,262.0 590.0,259.2 " fill="none" stroke="#3182ce" stroke-width="3" stroke-linecap="round" stroke-linejoin="round" />
  <text x="618" y="267" class="axis-value">4916</text>
  <text x="618" y="293" class="axis-value">3177</text>
  <line x1="24" y1="299.0" x2="714" y2="299.0" class="separator" />
  <text x="24" y="328" class="label">Moss</text>
  <polyline points="180.0,322.0 190.5,322.0 201.0,322.0 211.5,322.0 222.1,322.0 232.6,322.0 243.1,322.0 253.6,322.0 264.1,322.0 274.6,322.0 285.1,322.0 295.6,322.0 306.2,322.0 316.7,322.0 327.2,322.0 337.7,322.0 348.2,322.0 358.7,322.0 369.2,322.0 379.7,322.0 390.3,322.0 400.8,322.0 411.3,322.0 421.8,322.0 432.3,322.0 442.8,322.0 453.3,322.0 463.8,322.0 474.4,322.0 484.9,322.0 495.4,322.0 505.9,322.0 516.4,322.0 526.9,322.0 537.4,322.0 547.9,322.0 558.5,322.0 569.0,322.0 579.5,322.0 590.0,322.0 " fill="none" stroke="#b7791f" stroke-width="3" stroke-linecap="round" stroke-linejoin="round" />
  <text x="618" y="313" class="axis-value">2407</text>
  <text x="618" y="339" class="axis-value">2407</text>
  <line x1="24" y1="345.0" x2="714" y2="345.0" class="separator" />
  <text x="24" y="374" class="label">Root Network</text>
  <polyline points="180.0,385.0 190.5,381.5 201.0,378.3 211.5,375.4 222.1,372.1 232.6,368.3 243.1,364.5 253.6,360.6 264.1,357.6 274.6,357.1 285.1,356.5 295.6,355.8 306.2,355.2 316.7,354.6 327.2,354.1 337.7,353.4 348.2,352.8 358.7,352.3 369.2,351.8 379.7,351.4 390.3,351.0 400.8,368.3 411.3,368.1 421.8,368.0 432.3,368.0 442.8,368.0 453.3,368.0 463.8,368.0 474.4,367.9 484.9,367.9 495.4,367.9 505.9,367.9 516.4,367.8 526.9,367.8 537.4,367.5 547.9,367.3 558.5,367.0 569.0,366.5 579.5,366.1 590.0,365.6 " fill="none" stroke="#319795" stroke-width="3" stroke-linecap="round" stroke-linejoin="round" />
  <text x="618" y="359" class="axis-value">4856</text>
  <text x="618" y="385" class="axis-value">1515</text>
  <line x1="24" y1="391.0" x2="714" y2="391.0" class="separator" />
  <text x="24" y="420" class="label">Spore</text>
  <polyline points="180.0,414.0 190.5,414.0 201.0,414.0 211.5,414.0 222.1,414.0 232.6,414.0 243.1,414.0 253.6,414.0 264.1,414.0 274.6,414.0 285.1,414.0 295.6,414.0 306.2,414.0 316.7,414.0 327.2,414.0 337.7,414.0 348.2,414.0 358.7,414.0 369.2,414.0 379.7,414.0 390.3,414.0 400.8,414.0 411.3,414.0 421.8,414.0 432.3,414.0 442.8,414.0 453.3,414.0 463.8,414.0 474.4,414.0 484.9,414.0 495.4,414.0 505.9,414.0 516.4,414.0 526.9,414.0 537.4,414.0 547.9,414.0 558.5,414.0 569.0,414.0 579.5,414.0 590.0,414.0 " fill="none" stroke="#e53e3e" stroke-width="3" stroke-linecap="round" stroke-linejoin="round" />
  <text x="618" y="405" class="axis-value">1</text>
  <text x="618" y="431" class="axis-value">1</text>
</svg>
