<svg xmlns="http://www.w3.org/2000/svg" width="760" height="438" viewBox="0 0 760 438" role="img" aria-labelledby="title desc">
  <title id="title">Organism Trends</title>
  <desc id="desc">Seven-day trends for total organisms and organism types.</desc>
  <rect width="760" height="438" rx="8" fill="#ffffff"/>
  <style>
    text { font-family: -apple-system, BlinkMacSystemFont, "Segoe UI", sans-serif; }
    .title { font-size: 18px; font-weight: 700; fill: #1f2933; }
    .subtitle { font-size: 12px; fill: #52606d; }
    .label { font-size: 13px; font-weight: 650; fill: #1f2933; }
    .axis-value { font-size: 11px; fill: #52606d; }
    .separator { stroke: #eef2f7; stroke-width: 1; }
  </style>
  <text x="24" y="32" class="title">Organism Trends</text>
  <text x="24" y="52" class="subtitle">Last 7 days range</text>
  <text x="24" y="98" class="label">Total organisms</text>
  <polyline points="180.0,109.0 190.5,105.4 201.0,102.6 211.5,100.3 222.1,98.7 232.6,98.0 243.1,98.3 253.6,97.1 264.1,95.5 274.6,97.2 285.1,94.6 295.6,92.1 306.2,90.1 316.7,87.2 327.2,84.9 337.7,82.7 348.2,80.7 358.7,78.9 369.2,78.6 379.7,79.7 390.3,81.2 400.8,82.4 411.3,83.0 421.8,82.4 432.3,81.0 442.8,80.7 453.3,77.8 463.8,78.1 474.4,76.6 484.9,75.0 495.4,108.2 505.9,105.1 516.4,101.8 526.9,98.1 537.4,94.5 547.9,90.7 558.5,87.6 569.0,84.5 579.5,80.9 590.0,78.0 " fill="none" stroke="#2f855a" stroke-width="3" stroke-linecap="round" stroke-linejoin="round" />
  <text x="618" y="83" class="axis-value">17265</text>
  <text x="618" y="109" class="axis-value">12000</text>
  <line x1="24" y1="115.0" x2="714" y2="115.0" class="separator" />
  <text x="24" y="144" class="label">Beetle</text>
  <polyline points="180.0,121.0 190.5,121.4 201.0,122.9 211.5,125.9 222.1,129.9 232.6,134.7 243.1,139.8 253.6,143.9 264.1,147.2 274.6,155.0 285.1,155.0 295.6,155.0 306.2,155.0 316.7,155.0 327.2,155.0 337.7,155.0 348.2,155.0 358.7,155.0 369.2,155.0 379.7,155.0 390.3,155.0 400.8,155.0 411.3,155.0 421.8,154.9 432.3,154.9 442.8,154.9 453.3,153.6 463.8,154.9 474.4,153.8 484.9,154.9 495.4,153.6 505.9,153.6 516.4,153.7 526.9,153.7 537.4,153.7 547.9,153.6 558.5,153.8 569.0,154.0 579.5,153.6 590.0,153.7 " fill="none" stroke="#805ad5" stroke-width="3" stroke-linecap="round" stroke-linejoin="round" />
  <text x="618" y="129" class="axis-value">4732</text>
  <text x="618" y="155" class="axis-value">0</text>
  <line x1="24" y1="161.0" x2="714" y2="161.0" class="separator" />
  <text x="24" y="190" class="label">Fern</text>
  <polyline points="180.0,168.1 190.5,174.3 201.0,180.4 211.5,186.4 222.1,191.4 232.6,195.3 243.1,196.5 253.6,196.7 264.1,196.3 274.6,194.6 285.1,192.6 295.6,190.6 306.2,189.0 316.7,186.7 327.2,184.7 337.7,183.0 348.2,181.3 358.7,180.0 369.2,178.8 379.7,177.7 390.3,176.5 400.8,175.4 411.3,174.1 421.8,173.1 432.3,171.7 442.8,170.7 453.3,169.8 463.8,168.8 474.4,167.9 484.9,167.0 495.4,201.0 505.9,200.1 516.4,198.6 526.9,196.4 537.4,194.0 547.9,191.6 558.5,189.4 569.0,187.5 579.5,185.6 590.0,184.6 " fill="none" stroke="#d53f8c" stroke-width="3" stroke-linecap="round" stroke-linejoin="round" />
  <text x="618" y="175" class="axis-value">4788</text>
  <text x="618" y="201" class="axis-value">3153</text>
  <line x1="24" y1="207.0" x2="714" y2="207.0" class="separator" />
  <text x="24" y="236" class="label">Fox</text>
  <polyline points="180.0,247.0 190.5,243.8 201.0,240.4 211.5,236.5 222.1,232.7 232.6,228.7 243.1,225.3 253.6,221.5 264.1,218.2 274.6,215.2 285.1,216.8 295.6,218.4 306.2,219.9 316.7,220.9 327.2,222.2 337.7,224.0 348.2,226.5 358.7,228.6 369.2,231.5 379.7,234.7 390.3,238.8 400.8,242.4 411.3,245.1 421.8,246.0 432.3,245.9 442.8,247.0 453.3,246.0 463.8,246.3 474.4,246.7 484.9,244.1 495.4,246.5 505.9,242.9 516.4,239.2 526.9,235.1 537.4,231.4 547.9,227.4 558.5,223.9 569.0,220.2 579.5,216.7 590.0,213.0 " fill="none" stroke="#dd6b20" stroke-width="3" stroke-linecap="round" stroke-linejoin="round" />
  <text x="618" y="221" class="axis-value">3524</text>
  <text x="618" y="247" class="axis-value">24</text>
  <line x1="24" y1="253.0" x2="714" y2="253.0" class="separator" />
  <text x="24" y="282" class="label">Fungus</text>
  <polyline points="180.0,293.0 190.5,290.6 201.0,288.1 211.5,285.3 222.1,282.6 232.6,279.7 243.1,277.2 253.6,274.5 264.1,272.1 274.6,269.3 285.1,268.4 295.6,267.7 306.2,267.2 316.7,266.4 327.2,265.7 337.7,265.2 348.2,264.6 358.7,264.2 369.2,263.7 379.7,263.3 390.3,262.8 400.8,262.4 411.3,261.9 421.8,261.5 432.3,261.0 442.8,260.5 453.3,260.1 463.8,259.7 474.4,259.4 484.9,259.0 495.4,271.2 505.9,270.9 516.4,270.6 526.9,270.2 537.4,269.9 547.9,269.6 558.5,269.3 569.0,269.0 579.5,268.8 590.0,268.5 " fill="none" stroke="#3182ce" stroke-width="3" stroke-linecap="round" stroke-linejoin="round" />
  <text x="618" y="267" class="axis-value">4899</text>
  <text x="618" y="293" class="axis-value">55</text>
  <line x1="24" y1="299.0" x2="714" y2="299.0" class="separator" />
  <text x="24" y="328" class="label">Moss</text>
  <polyline points="180.0,322.0 190.5,322.0 201.0,322.0 211.5,322.0 222.1,322.0 232.6,322.0 243.1,322.0 253.6,322.0 264.1,322.0 274.6,322.0 285.1,322.0 295.6,322.0 306.2,322.0 316.7,322.0 327.2,322.0 337.7,322.0 348.2,322.0 358.7,322.0 369.2,322.0 379.7,322.0 390.3,322.0 400.8,322.0 411.3,322.0 421.8,322.0 432.3,322.0 442.8,322.0 453.3,322.0 463.8,322.0 474.4,322.0 484.9,322.0 495.4,322.0 505.9,322.0 516.4,322.0 526.9,322.0 537.4,322.0 547.9,322.0 558.5,322.0 569.0,322.0 579.5,322.0 590.0,322.0 " fill="none" stroke="#b7791f" stroke-width="3" stroke-linecap="round" stroke-linejoin="round" />
  <text x="618" y="313" class="axis-value">2407</text>
  <text x="618" y="339" class="axis-value">2407</text>
  <line x1="24" y1="345.0" x2="714" y2="345.0" class="separator" />
  <text x="24" y="374" class="label">Root Network</text>
  <polyline points="180.0,385.0 190.5,383.4 201.0,381.7 211.5,379.8 222.1,378.0 232.6,376.9 243.1,376.9 253.6,376.9 264.1,376.9 274.6,376.6 285.1,374.2 295.6,371.6 306.2,369.5 316.7,367.1 327.2,364.9 337.7,362.4 348.2,359.5 358.7,356.9 369.2,355.4 379.7,355.0 390.3,354.6 400.8,354.1 411.3,353.7 421.8,353.3 432.3,352.8 442.8,352.4 453.3,351.9 463.8,351.6 474.4,351.4 484.9,351.0 495.4,363.1 505.9,362.9 516.4,362.8 526.9,362.8 537.4,362.8 547.9,362.8 558.5,362.7 569.0,362.7 579.5,362.7 590.0,362.7 " fill="none" stroke="#319795" stroke-width="3" stroke-linecap="round" stroke-linejoin="round" />
  <text x="618" y="359" class="axis-value">4844</text>
  <text x="618" y="385" class="axis-value">48</text>
  <line x1="24" y1="391.0" x2="714" y2="391.0" class="separator" />
  <text x="24" y="420" class="label">Spore</text>
  <polyline points="180.0,414.0 190.5,414.0 201.0,414.0 211.5,414.0 222.1,414.0 232.6,414.0 243.1,414.0 253.6,414.0 264.1,414.0 274.6,414.0 285.1,414.0 295.6,414.0 306.2,414.0 316.7,414.0 327.2,414.0 337.7,414.0 348.2,414.0 358.7,414.0 369.2,414.0 379.7,414.0 390.3,414.0 400.8,414.0 411.3,414.0 421.8,414.0 432.3,414.0 442.8,414.0 453.3,414.0 463.8,414.0 474.4,414.0 484.9,414.0 495.4,414.0 505.9,414.0 516.4,414.0 526.9,414.0 537.4,414.0 547.9,414.0 558.5,414.0 569.0,414.0 579.5,414.0 590.0,414.0 " fill="none" stroke="#e53e3e" stroke-width="3" stroke-linecap="round" stroke-linejoin="round" />
  <text x="618" y="405" class="axis-value">1</text>
  <text x="618" y="431" class="axis-value">1</text>
</svg>
